<?xml version="1.0" encoding="UTF-8" standalone="no"?><!-- Generator: Gravit.io --><svg xmlns="http://www.w3.org/2000/svg" xmlns:xlink="http://www.w3.org/1999/xlink" style="isolation:isolate" viewBox="0 0 921 921" width="921pt" height="921pt"><defs><clipPath id="_clipPath_CRTNhIWzg1WF1iEpIwJuKPLWx7cAXm66"><rect width="921" height="921"/></clipPath></defs><g clip-path="url(#_clipPath_CRTNhIWzg1WF1iEpIwJuKPLWx7cAXm66)"><rect x="525.932" y="272.853" width="77" height="1220.466" transform="matrix(0,1,-1,0,1447.518,318.653)" fill="rgb(255,162,20)"/><rect x="525.932" y="144.941" width="77" height="1322.29" transform="matrix(0,1,-1,0,1370.518,241.653)" fill="rgb(255,200,37)"/><rect x="553.509" y="119.335" width="77" height="1220.466" transform="matrix(0,1,-1,0,1321.578,137.559)" fill="rgb(255,162,20)"/><rect x="520.778" y="-8.576" width="77" height="1322.29" transform="matrix(0,1,-1,0,1211.847,93.291)" fill="rgb(255,200,37)"/><rect x="548.355" y="-34.182" width="77" height="1220.466" transform="matrix(0,1,-1,0,1162.907,-10.804)" fill="rgb(255,162,20)"/><rect x="548.355" y="-162.093" width="77" height="1322.29" transform="matrix(0,1,-1,0,1085.907,-87.804)" fill="rgb(255,200,37)"/><rect x="484.333" y="-279.298" width="77" height="1403.665" transform="matrix(0,1,-1,0,945.367,-100.298)" fill="rgb(255,162,20)"/><rect x="462.355" y="-315.611" width="77" height="1322.29" transform="matrix(0,1,-1,0,846.389,-155.321)" fill="rgb(255,200,37)"/><rect x="489.932" y="-341.216" width="77" height="1220.466" transform="matrix(0,1,-1,0,797.449,-259.415)" fill="rgb(255,162,20)"/><rect x="489.932" y="-469.128" width="77" height="1322.29" transform="matrix(0,1,-1,0,720.449,-336.415)" fill="rgb(255,200,37)"/><rect x="517.509" y="-494.733" width="77" height="1220.466" transform="matrix(0,1,-1,0,671.509,-440.509)" fill="rgb(255,162,20)"/><rect x="484.778" y="-622.645" width="77" height="1322.29" transform="matrix(0,1,-1,0,561.778,-484.778)" fill="rgb(255,200,37)"/><rect x="641.355" y="1552.492" width="77" height="1322.29" transform="matrix(0,1,-1,0,2893.492,1533.782)" fill="rgb(255,200,37)"/><rect x="668.932" y="1526.887" width="77" height="1220.466" transform="matrix(0,1,-1,0,2844.552,1429.688)" fill="rgb(255,162,20)"/><rect x="668.932" y="1398.975" width="77" height="1322.29" transform="matrix(0,1,-1,0,2767.552,1352.688)" fill="rgb(255,200,37)"/><rect x="696.509" y="1373.37" width="77" height="1220.466" transform="matrix(0,1,-1,0,2718.612,1248.593)" fill="rgb(255,162,20)"/><rect x="663.778" y="1245.458" width="77" height="1322.29" transform="matrix(0,1,-1,0,2608.881,1204.325)" fill="rgb(255,200,37)"/><rect x="691.355" y="1219.853" width="77" height="1220.466" transform="matrix(0,1,-1,0,2559.941,1100.231)" fill="rgb(255,162,20)"/><rect x="691.355" y="1091.941" width="77" height="1322.29" transform="matrix(0,1,-1,0,2482.941,1023.231)" fill="rgb(255,200,37)"/><rect x="627.333" y="974.736" width="77" height="1403.665" transform="matrix(0,1,-1,0,2342.401,1010.736)" fill="rgb(255,162,20)"/><rect x="605.355" y="938.424" width="77" height="1322.29" transform="matrix(0,1,-1,0,2243.424,955.713)" fill="rgb(255,200,37)"/><rect x="632.932" y="912.818" width="77" height="1220.466" transform="matrix(0,1,-1,0,2194.484,851.619)" fill="rgb(255,162,20)"/><rect x="632.932" y="784.907" width="77" height="1322.29" transform="matrix(0,1,-1,0,2117.484,774.619)" fill="rgb(255,200,37)"/><rect x="661.509" y="739.267" width="77" height="1220.466" transform="matrix(0,1,-1,0,2049.509,649.491)" fill="rgb(255,162,20)"/><rect x="628.778" y="611.355" width="77" height="1322.29" transform="matrix(0,1,-1,0,1939.778,605.222)" fill="rgb(255,200,37)"/><rect x="656.355" y="579.887" width="77" height="1220.466" transform="matrix(0,1,-1,0,1884.975,495.265)" fill="rgb(255,162,20)"/><rect x="656.355" y="451.975" width="77" height="1322.29" transform="matrix(0,1,-1,0,1807.975,418.265)" fill="rgb(255,200,37)"/></g></svg>