<?xml version="1.0" encoding="UTF-8" standalone="no"?><!-- Generator: Gravit.io --><svg xmlns="http://www.w3.org/2000/svg" xmlns:xlink="http://www.w3.org/1999/xlink" style="isolation:isolate" viewBox="0 0 1024 768" width="1024pt" height="768pt"><defs><clipPath id="_clipPath_O4IKah4g7mkakGenvdyN8p4PJHw9WJZ8"><rect width="1024" height="768"/></clipPath></defs><g clip-path="url(#_clipPath_O4IKah4g7mkakGenvdyN8p4PJHw9WJZ8)"><rect width="1024" height="768" style="fill:rgb(0,0,0)" fill-opacity="0"/><g style="isolation:isolate"><mask id="_mask_ZobOvP2XZLi6SCsnUC3UYE2IReR1tGnP"><path d=" M 778 593 L 822 593 C 824.76 593 827 595.24 827 598 L 827 642 L 783 642 C 780.24 642 778 639.76 778 637 L 778 593 Z " fill="white" stroke="none"/></mask><path d=" M 778 593 L 822 593 C 824.76 593 827 595.24 827 598 L 827 642 L 783 642 C 780.24 642 778 639.76 778 637 L 778 593 Z " fill="rgb(0,152,220)"/><path d=" M 778 593 L 822 593 C 824.76 593 827 595.24 827 598 L 827 642 L 783 642 C 780.24 642 778 639.76 778 637 L 778 593 Z " fill="rgb(0,152,220)" mask="url(#_mask_ZobOvP2XZLi6SCsnUC3UYE2IReR1tGnP)" vector-effect="non-scaling-stroke" stroke-width="6" stroke="rgb(0,0,0)" stroke-linejoin="miter" stroke-linecap="square" stroke-miterlimit="3"/><mask id="_mask_OuAJH9lqqDXWUBjC0EauRrv9fsHtOOlq"><path d=" M 797.3 614.028 L 797.3 598 L 807.7 598 L 807.7 614.028 L 815.763 614.028 L 809.131 625.514 L 802.5 637 L 795.869 625.514 L 789.237 614.028 L 797.3 614.028 Z " fill-rule="evenodd" fill="white" stroke="none"/></mask><path d=" M 797.3 614.028 L 797.3 598 L 807.7 598 L 807.7 614.028 L 815.763 614.028 L 809.131 625.514 L 802.5 637 L 795.869 625.514 L 789.237 614.028 L 797.3 614.028 Z " fill-rule="evenodd" fill="rgb(0,105,170)"/><path d=" M 797.3 614.028 L 797.3 598 L 807.7 598 L 807.7 614.028 L 815.763 614.028 L 809.131 625.514 L 802.5 637 L 795.869 625.514 L 789.237 614.028 L 797.3 614.028 Z " fill-rule="evenodd" fill="rgb(0,105,170)" mask="url(#_mask_OuAJH9lqqDXWUBjC0EauRrv9fsHtOOlq)" vector-effect="non-scaling-stroke" stroke-width="6" stroke="rgb(0,0,0)" stroke-linejoin="miter" stroke-linecap="square" stroke-miterlimit="3"/></g></g></svg>