<?xml version="1.0" encoding="UTF-8" standalone="no"?><!-- Generator: Gravit.io --><svg xmlns="http://www.w3.org/2000/svg" xmlns:xlink="http://www.w3.org/1999/xlink" style="isolation:isolate" viewBox="0 0 1024 768" width="1024pt" height="768pt"><defs><clipPath id="_clipPath_9YFNq6JvvOSt4rUhExvJcEq15EeVJbTR"><rect width="1024" height="768"/></clipPath></defs><g clip-path="url(#_clipPath_9YFNq6JvvOSt4rUhExvJcEq15EeVJbTR)"><rect width="1024" height="768" style="fill:rgb(0,0,0)" fill-opacity="0"/><g style="isolation:isolate"><g><mask id="_mask_n9wzeI3vpeIyaFjw6qI1RApuGOuXp9wL"><rect x="775.839" y="411.782" width="25.64" height="9.373" fill="white" stroke="none"/></mask><rect x="775.839" y="411.782" width="25.64" height="9.373" transform="matrix(-1,0,0,-1,1577.318,832.938)" fill="rgb(198,69,36)"/><rect x="775.839" y="411.782" width="25.64" height="9.373" transform="matrix(-1,0,0,-1,1577.318,832.938)" fill="rgb(198,69,36)" mask="url(#_mask_n9wzeI3vpeIyaFjw6qI1RApuGOuXp9wL)" vector-effect="non-scaling-stroke" stroke-width="8" stroke="rgb(0,0,0)" stroke-linejoin="miter" stroke-linecap="square" stroke-miterlimit="2"/><mask id="_mask_Gjq4iD4hCf28hi5mmxNRU2pqQvgJ4rGP"><rect x="779.446" y="406.762" width="33.585" height="18" fill="white" stroke="none"/></mask><rect x="779.446" y="406.762" width="33.585" height="18" transform="matrix(-1,0,0,-1,1592.476,831.524)" fill="rgb(198,69,36)"/><rect x="779.446" y="406.762" width="33.585" height="18" transform="matrix(-1,0,0,-1,1592.476,831.524)" fill="rgb(198,69,36)" mask="url(#_mask_Gjq4iD4hCf28hi5mmxNRU2pqQvgJ4rGP)" vector-effect="non-scaling-stroke" stroke-width="8" stroke="rgb(0,0,0)" stroke-linejoin="miter" stroke-linecap="square" stroke-miterlimit="2"/></g><g><mask id="_mask_gXkyVqa164pep9bV35MZ73sZk7ejD9qi"><rect x="217.814" y="411.075" width="25.64" height="9.373" fill="white" stroke="none"/></mask><rect x="217.814" y="411.075" width="25.64" height="9.373" transform="matrix(1,0,0,1,0,0)" fill="rgb(198,69,36)"/><rect x="217.814" y="411.075" width="25.64" height="9.373" transform="matrix(1,0,0,1,0,0)" fill="rgb(198,69,36)" mask="url(#_mask_gXkyVqa164pep9bV35MZ73sZk7ejD9qi)" vector-effect="non-scaling-stroke" stroke-width="8" stroke="rgb(0,0,0)" stroke-linejoin="miter" stroke-linecap="square" stroke-miterlimit="2"/><mask id="_mask_riI4UxywCHGnjuylwdTAVHhXLtZhxQAg"><rect x="206.969" y="406.762" width="33.585" height="18" fill="white" stroke="none"/></mask><rect x="206.969" y="406.762" width="33.585" height="18" transform="matrix(1,0,0,1,0,0)" fill="rgb(198,69,36)"/><rect x="206.969" y="406.762" width="33.585" height="18" transform="matrix(1,0,0,1,0,0)" fill="rgb(198,69,36)" mask="url(#_mask_riI4UxywCHGnjuylwdTAVHhXLtZhxQAg)" vector-effect="non-scaling-stroke" stroke-width="8" stroke="rgb(0,0,0)" stroke-linejoin="miter" stroke-linecap="square" stroke-miterlimit="2"/></g></g><g style="isolation:isolate"><g><mask id="_mask_ClI57y2AyM1UNyyclWJrb1njW1YX678n"><ellipse vector-effect="non-scaling-stroke" cx="815.0000000000002" cy="413.99999999999994" rx="12" ry="14.5" fill="white" stroke="none"/></mask><ellipse vector-effect="non-scaling-stroke" cx="815.0000000000002" cy="413.99999999999994" rx="12" ry="14.5" fill="rgb(235,235,235)"/><ellipse vector-effect="non-scaling-stroke" cx="815.0000000000002" cy="413.99999999999994" rx="12" ry="14.5" fill="rgb(235,235,235)" mask="url(#_mask_ClI57y2AyM1UNyyclWJrb1njW1YX678n)" stroke-width="8" stroke="rgb(0,0,0)" stroke-linejoin="miter" stroke-linecap="square" stroke-miterlimit="3"/><mask id="_mask_u9hvmKGHX1mwu9JMew93K4q6zHLT6Ch9"><ellipse vector-effect="non-scaling-stroke" cx="803.0000000000002" cy="427.49999999999994" rx="12" ry="14.5" fill="white" stroke="none"/></mask><ellipse vector-effect="non-scaling-stroke" cx="803.0000000000002" cy="427.49999999999994" rx="12" ry="14.5" fill="rgb(235,235,235)"/><ellipse vector-effect="non-scaling-stroke" cx="803.0000000000002" cy="427.49999999999994" rx="12" ry="14.5" fill="rgb(235,235,235)" mask="url(#_mask_u9hvmKGHX1mwu9JMew93K4q6zHLT6Ch9)" stroke-width="8" stroke="rgb(0,0,0)" stroke-linejoin="miter" stroke-linecap="square" stroke-miterlimit="3"/></g><g><mask id="_mask_NbarcKc4aTIWX9weAwiTeWG3sJDl97s0"><ellipse vector-effect="non-scaling-stroke" cx="208.9999999999992" cy="413.99999999999994" rx="12" ry="14.5" fill="white" stroke="none"/></mask><ellipse vector-effect="non-scaling-stroke" cx="208.9999999999992" cy="413.99999999999994" rx="12" ry="14.5" fill="rgb(235,235,235)"/><ellipse vector-effect="non-scaling-stroke" cx="208.9999999999992" cy="413.99999999999994" rx="12" ry="14.5" fill="rgb(235,235,235)" mask="url(#_mask_NbarcKc4aTIWX9weAwiTeWG3sJDl97s0)" stroke-width="8" stroke="rgb(0,0,0)" stroke-linejoin="miter" stroke-linecap="square" stroke-miterlimit="3"/><mask id="_mask_nFPfurP6MUV7dafyXWyH3OrX3jyHCYEE"><ellipse vector-effect="non-scaling-stroke" cx="220.9999999999992" cy="427.49999999999994" rx="12" ry="14.5" fill="white" stroke="none"/></mask><ellipse vector-effect="non-scaling-stroke" cx="220.9999999999992" cy="427.49999999999994" rx="12" ry="14.5" fill="rgb(235,235,235)"/><ellipse vector-effect="non-scaling-stroke" cx="220.9999999999992" cy="427.49999999999994" rx="12" ry="14.5" fill="rgb(235,235,235)" mask="url(#_mask_nFPfurP6MUV7dafyXWyH3OrX3jyHCYEE)" stroke-width="8" stroke="rgb(0,0,0)" stroke-linejoin="miter" stroke-linecap="square" stroke-miterlimit="3"/></g></g></g></svg>