<?xml version="1.0" encoding="UTF-8" standalone="no"?><!-- Generator: Gravit.io --><svg xmlns="http://www.w3.org/2000/svg" xmlns:xlink="http://www.w3.org/1999/xlink" style="isolation:isolate" viewBox="0 0 1024 768" width="1024pt" height="768pt"><defs><clipPath id="_clipPath_MoXG9BKeBGYVGWGna93YClVhaOHpjwHc"><rect width="1024" height="768"/></clipPath></defs><g clip-path="url(#_clipPath_MoXG9BKeBGYVGWGna93YClVhaOHpjwHc)"><rect width="1024" height="768" style="fill:rgb(0,0,0)" fill-opacity="0"/><g style="isolation:isolate"><mask id="_mask_JHf7541dELxCBI0e9aFtJ5AsuDCyC3db"><path d=" M 854 593 L 898 593 C 900.76 593 903 595.24 903 598 L 903 642 L 859 642 C 856.24 642 854 639.76 854 637 L 854 593 Z " fill="white" stroke="none"/></mask><path d=" M 854 593 L 898 593 C 900.76 593 903 595.24 903 598 L 903 642 L 859 642 C 856.24 642 854 639.76 854 637 L 854 593 Z " fill="rgb(153,230,95)"/><path d=" M 854 593 L 898 593 C 900.76 593 903 595.24 903 598 L 903 642 L 859 642 C 856.24 642 854 639.76 854 637 L 854 593 Z " fill="rgb(153,230,95)" mask="url(#_mask_JHf7541dELxCBI0e9aFtJ5AsuDCyC3db)" vector-effect="non-scaling-stroke" stroke-width="6" stroke="rgb(0,0,0)" stroke-linejoin="miter" stroke-linecap="square" stroke-miterlimit="3"/><mask id="_mask_wETEUcq40cOvGjlAmaA9NZQMjTpTASaR"><path d=" M 881.972 612.3 L 898 612.3 L 898 622.7 L 881.972 622.7 L 881.972 630.763 L 870.486 624.131 L 859 617.5 L 870.486 610.869 L 881.972 604.237 L 881.972 612.3 Z " fill-rule="evenodd" fill="white" stroke="none"/></mask><path d=" M 881.972 612.3 L 898 612.3 L 898 622.7 L 881.972 622.7 L 881.972 630.763 L 870.486 624.131 L 859 617.5 L 870.486 610.869 L 881.972 604.237 L 881.972 612.3 Z " fill-rule="evenodd" fill="rgb(90,197,79)"/><path d=" M 881.972 612.3 L 898 612.3 L 898 622.7 L 881.972 622.7 L 881.972 630.763 L 870.486 624.131 L 859 617.5 L 870.486 610.869 L 881.972 604.237 L 881.972 612.3 Z " fill-rule="evenodd" fill="rgb(90,197,79)" mask="url(#_mask_wETEUcq40cOvGjlAmaA9NZQMjTpTASaR)" vector-effect="non-scaling-stroke" stroke-width="6" stroke="rgb(0,0,0)" stroke-linejoin="miter" stroke-linecap="square" stroke-miterlimit="3"/></g></g></svg>