<?xml version="1.0" encoding="UTF-8" standalone="no"?><!-- Generator: Gravit.io --><svg xmlns="http://www.w3.org/2000/svg" xmlns:xlink="http://www.w3.org/1999/xlink" style="isolation:isolate" viewBox="0 0 700 250" width="700pt" height="250pt"><defs><clipPath id="_clipPath_rcMzSTuqqn3Ln7hATthrpbzLm8VrX9uV"><rect width="700" height="250"/></clipPath></defs><g clip-path="url(#_clipPath_rcMzSTuqqn3Ln7hATthrpbzLm8VrX9uV)"><rect width="700" height="250" style="fill:rgb(0,0,0)" fill-opacity="0"/><rect x="331.5" y="162.565" width="223" height="62" transform="matrix(1,0,0,1,0,0)" fill="rgb(0,0,0)"/><g clip-path="url(#_clipPath_bi5DgaM0ZQgtpXNIqA1cXonglPd8yb5B)"><text transform="matrix(1,0,0,1,139.5,171.945)" style="font-family:'Play';font-weight:400;font-size:60px;font-style:normal;fill:#ffa214;stroke:#000000;stroke-width:10;">MEGA </text><text transform="matrix(1,0,0,1,318.84,171.945)" style="font-family:'Play';font-weight:400;font-size:60px;font-style:normal;fill:#0098dc;stroke:#000000;stroke-width:10;">Jump </text><text transform="matrix(1,0,0,1,479.34,171.945)" style="font-family:'Play';font-weight:400;font-size:60px;font-style:normal;fill:#ff5000;stroke:#000000;stroke-width:10;">Rope</text></g><defs><clipPath id="_clipPath_bi5DgaM0ZQgtpXNIqA1cXonglPd8yb5B"><rect x="0" y="0" width="481" height="69.42" transform="matrix(1,0,0,1,109.5,85.725)"/></clipPath></defs><g clip-path="url(#_clipPath_23A5wNQpzdxxfyWRrv23aJCAEGs9QEGc)"><text transform="matrix(1,0,0,1,234,241.365)" style="font-family:'Play';font-weight:400;font-size:60px;font-style:normal;fill:#ffa214;stroke:#000000;stroke-width:10;">Mix!</text></g><defs><clipPath id="_clipPath_23A5wNQpzdxxfyWRrv23aJCAEGs9QEGc"><rect x="0" y="0" width="114" height="69.42" transform="matrix(1,0,0,1,204,155.145)"/></clipPath></defs><g clip-path="url(#_clipPath_NkpmvCGoOoN91jl6wQaDVYQzw3QpJzy9)"><text transform="matrix(1,0,0,1,217,111.655)" style="font-family:'Play';font-weight:400;font-size:60px;font-style:normal;fill:#0098dc;stroke:#000000;stroke-width:10;">Mini</text><text transform="matrix(1,0,0,1,332.56,111.655)" style="font-family:'Play';font-weight:400;font-size:60px;font-style:normal;fill:#ffa214;stroke:#000000;stroke-width:10;">&#x26;</text><text transform="matrix(1,0,0,1,370.72,111.655)" style="font-family:'Play';font-weight:400;font-size:60px;font-style:normal;fill:#ff5000;stroke:#000000;stroke-width:10;">Minnie's</text></g><defs><clipPath id="_clipPath_NkpmvCGoOoN91jl6wQaDVYQzw3QpJzy9"><rect x="0" y="0" width="383" height="69.42" transform="matrix(1,0,0,1,187,25.435)"/></clipPath></defs><g><mask id="_mask_1EUct0k6ER6zALIlOosXIuYPNqdUabsg"><path d=" M 339.5 170.065 L 383.5 170.065 C 386.26 170.065 388.5 172.305 388.5 175.065 L 388.5 219.065 L 344.5 219.065 C 341.74 219.065 339.5 216.825 339.5 214.065 L 339.5 170.065 Z " fill="white" stroke="none"/></mask><path d=" M 339.5 170.065 L 383.5 170.065 C 386.26 170.065 388.5 172.305 388.5 175.065 L 388.5 219.065 L 344.5 219.065 C 341.74 219.065 339.5 216.825 339.5 214.065 L 339.5 170.065 Z " fill="rgb(255,162,20)"/><path d=" M 339.5 170.065 L 383.5 170.065 C 386.26 170.065 388.5 172.305 388.5 175.065 L 388.5 219.065 L 344.5 219.065 C 341.74 219.065 339.5 216.825 339.5 214.065 L 339.5 170.065 Z " fill="rgb(255,162,20)" mask="url(#_mask_1EUct0k6ER6zALIlOosXIuYPNqdUabsg)" vector-effect="non-scaling-stroke" stroke-width="6" stroke="rgb(0,0,0)" stroke-linejoin="miter" stroke-linecap="square" stroke-miterlimit="3"/><mask id="_mask_lY3PVPLL8F4Yph3mkxYLDLpzazmEqpTG"><path d=" M 393.5 170.065 L 437.5 170.065 C 440.26 170.065 442.5 172.305 442.5 175.065 L 442.5 219.065 L 398.5 219.065 C 395.74 219.065 393.5 216.825 393.5 214.065 L 393.5 170.065 Z " fill="white" stroke="none"/></mask><path d=" M 393.5 170.065 L 437.5 170.065 C 440.26 170.065 442.5 172.305 442.5 175.065 L 442.5 219.065 L 398.5 219.065 C 395.74 219.065 393.5 216.825 393.5 214.065 L 393.5 170.065 Z " fill="rgb(255,80,0)"/><path d=" M 393.5 170.065 L 437.5 170.065 C 440.26 170.065 442.5 172.305 442.5 175.065 L 442.5 219.065 L 398.5 219.065 C 395.74 219.065 393.5 216.825 393.5 214.065 L 393.5 170.065 Z " fill="rgb(255,80,0)" mask="url(#_mask_lY3PVPLL8F4Yph3mkxYLDLpzazmEqpTG)" vector-effect="non-scaling-stroke" stroke-width="6" stroke="rgb(0,0,0)" stroke-linejoin="miter" stroke-linecap="square" stroke-miterlimit="3"/><mask id="_mask_m9XUiNTNUAVOIHtcFxzmjEUIji2UZFif"><path d=" M 447.5 170.065 L 491.5 170.065 C 494.26 170.065 496.5 172.305 496.5 175.065 L 496.5 219.065 L 452.5 219.065 C 449.74 219.065 447.5 216.825 447.5 214.065 L 447.5 170.065 Z " fill="white" stroke="none"/></mask><path d=" M 447.5 170.065 L 491.5 170.065 C 494.26 170.065 496.5 172.305 496.5 175.065 L 496.5 219.065 L 452.5 219.065 C 449.74 219.065 447.5 216.825 447.5 214.065 L 447.5 170.065 Z " fill="rgb(0,152,220)"/><path d=" M 447.5 170.065 L 491.5 170.065 C 494.26 170.065 496.5 172.305 496.5 175.065 L 496.5 219.065 L 452.5 219.065 C 449.74 219.065 447.5 216.825 447.5 214.065 L 447.5 170.065 Z " fill="rgb(0,152,220)" mask="url(#_mask_m9XUiNTNUAVOIHtcFxzmjEUIji2UZFif)" vector-effect="non-scaling-stroke" stroke-width="6" stroke="rgb(0,0,0)" stroke-linejoin="miter" stroke-linecap="square" stroke-miterlimit="3"/><mask id="_mask_aM0u85rYnOEgCifit2IlULUhARFks52u"><path d=" M 369.2 198.037 L 369.2 214.065 L 358.8 214.065 L 358.8 198.037 L 350.737 198.037 L 357.369 186.551 L 364 175.065 L 370.631 186.551 L 377.263 198.037 L 369.2 198.037 Z " fill-rule="evenodd" fill="white" stroke="none"/></mask><path d=" M 369.2 198.037 L 369.2 214.065 L 358.8 214.065 L 358.8 198.037 L 350.737 198.037 L 357.369 186.551 L 364 175.065 L 370.631 186.551 L 377.263 198.037 L 369.2 198.037 Z " fill-rule="evenodd" fill="rgb(255,235,87)"/><path d=" M 369.2 198.037 L 369.2 214.065 L 358.8 214.065 L 358.8 198.037 L 350.737 198.037 L 357.369 186.551 L 364 175.065 L 370.631 186.551 L 377.263 198.037 L 369.2 198.037 Z " fill-rule="evenodd" fill="rgb(255,235,87)" mask="url(#_mask_aM0u85rYnOEgCifit2IlULUhARFks52u)" vector-effect="non-scaling-stroke" stroke-width="6" stroke="rgb(0,0,0)" stroke-linejoin="miter" stroke-linecap="square" stroke-miterlimit="3"/><mask id="_mask_KhwtwgBg3t5hvpUpAN0395jIH8wsY1R2"><path d=" M 414.528 199.765 L 398.5 199.765 L 398.5 189.365 L 414.528 189.365 L 414.528 181.302 L 426.014 187.934 L 437.5 194.565 L 426.014 201.196 L 414.528 207.828 L 414.528 199.765 Z " fill-rule="evenodd" fill="white" stroke="none"/></mask><path d=" M 414.528 199.765 L 398.5 199.765 L 398.5 189.365 L 414.528 189.365 L 414.528 181.302 L 426.014 187.934 L 437.5 194.565 L 426.014 201.196 L 414.528 207.828 L 414.528 199.765 Z " fill-rule="evenodd" fill="rgb(255,0,64)"/><path d=" M 414.528 199.765 L 398.5 199.765 L 398.5 189.365 L 414.528 189.365 L 414.528 181.302 L 426.014 187.934 L 437.5 194.565 L 426.014 201.196 L 414.528 207.828 L 414.528 199.765 Z " fill-rule="evenodd" fill="rgb(255,0,64)" mask="url(#_mask_KhwtwgBg3t5hvpUpAN0395jIH8wsY1R2)" vector-effect="non-scaling-stroke" stroke-width="6" stroke="rgb(0,0,0)" stroke-linejoin="miter" stroke-linecap="square" stroke-miterlimit="3"/><mask id="_mask_lObKHWF1jY0I0XNrbZi41LlfYSxmYSex"><path d=" M 466.8 191.093 L 466.8 175.065 L 477.2 175.065 L 477.2 191.093 L 485.263 191.093 L 478.631 202.579 L 472 214.065 L 465.369 202.579 L 458.737 191.093 L 466.8 191.093 Z " fill-rule="evenodd" fill="white" stroke="none"/></mask><path d=" M 466.8 191.093 L 466.8 175.065 L 477.2 175.065 L 477.2 191.093 L 485.263 191.093 L 478.631 202.579 L 472 214.065 L 465.369 202.579 L 458.737 191.093 L 466.8 191.093 Z " fill-rule="evenodd" fill="rgb(0,105,170)"/><path d=" M 466.8 191.093 L 466.8 175.065 L 477.2 175.065 L 477.2 191.093 L 485.263 191.093 L 478.631 202.579 L 472 214.065 L 465.369 202.579 L 458.737 191.093 L 466.8 191.093 Z " fill-rule="evenodd" fill="rgb(0,105,170)" mask="url(#_mask_lObKHWF1jY0I0XNrbZi41LlfYSxmYSex)" vector-effect="non-scaling-stroke" stroke-width="6" stroke="rgb(0,0,0)" stroke-linejoin="miter" stroke-linecap="square" stroke-miterlimit="3"/><mask id="_mask_Y8pi5YddH3d4m5GdmCiff6YNYjDjXTbY"><path d=" M 502.5 170.065 L 546.5 170.065 C 549.26 170.065 551.5 172.305 551.5 175.065 L 551.5 219.065 L 507.5 219.065 C 504.74 219.065 502.5 216.825 502.5 214.065 L 502.5 170.065 Z " fill="white" stroke="none"/></mask><path d=" M 502.5 170.065 L 546.5 170.065 C 549.26 170.065 551.5 172.305 551.5 175.065 L 551.5 219.065 L 507.5 219.065 C 504.74 219.065 502.5 216.825 502.5 214.065 L 502.5 170.065 Z " fill="rgb(153,230,95)"/><path d=" M 502.5 170.065 L 546.5 170.065 C 549.26 170.065 551.5 172.305 551.5 175.065 L 551.5 219.065 L 507.5 219.065 C 504.74 219.065 502.5 216.825 502.5 214.065 L 502.5 170.065 Z " fill="rgb(153,230,95)" mask="url(#_mask_Y8pi5YddH3d4m5GdmCiff6YNYjDjXTbY)" vector-effect="non-scaling-stroke" stroke-width="6" stroke="rgb(0,0,0)" stroke-linejoin="miter" stroke-linecap="square" stroke-miterlimit="3"/><mask id="_mask_RgnBwQPDX79ezOZfEzvA2pvcVR4pT7gG"><path d=" M 530.472 189.365 L 546.5 189.365 L 546.5 199.765 L 530.472 199.765 L 530.472 207.828 L 518.986 201.196 L 507.5 194.565 L 518.986 187.934 L 530.472 181.302 L 530.472 189.365 Z " fill-rule="evenodd" fill="white" stroke="none"/></mask><path d=" M 530.472 189.365 L 546.5 189.365 L 546.5 199.765 L 530.472 199.765 L 530.472 207.828 L 518.986 201.196 L 507.5 194.565 L 518.986 187.934 L 530.472 181.302 L 530.472 189.365 Z " fill-rule="evenodd" fill="rgb(90,197,79)"/><path d=" M 530.472 189.365 L 546.5 189.365 L 546.5 199.765 L 530.472 199.765 L 530.472 207.828 L 518.986 201.196 L 507.5 194.565 L 518.986 187.934 L 530.472 181.302 L 530.472 189.365 Z " fill-rule="evenodd" fill="rgb(90,197,79)" mask="url(#_mask_RgnBwQPDX79ezOZfEzvA2pvcVR4pT7gG)" vector-effect="non-scaling-stroke" stroke-width="6" stroke="rgb(0,0,0)" stroke-linejoin="miter" stroke-linecap="square" stroke-miterlimit="3"/></g></g></svg>