<?xml version="1.0" encoding="UTF-8" standalone="no"?><!-- Generator: Gravit.io --><svg xmlns="http://www.w3.org/2000/svg" xmlns:xlink="http://www.w3.org/1999/xlink" style="isolation:isolate" viewBox="0 0 1024 768" width="1024pt" height="768pt"><defs><clipPath id="_clipPath_ZJxoUKZUqgVcfFzg4fy74hgAYUkdCxRe"><rect width="1024" height="768"/></clipPath></defs><g clip-path="url(#_clipPath_ZJxoUKZUqgVcfFzg4fy74hgAYUkdCxRe)"><rect width="1024" height="768" style="fill:rgb(0,0,0)" fill-opacity="0"/><g style="isolation:isolate"><g><mask id="_mask_y8kXldmhatlDOzTTcQXRx4EiRdKaI1Sm"><ellipse vector-effect="non-scaling-stroke" cx="877.7499999999992" cy="481.49999999999864" rx="26.75" ry="35.619021166392145" fill="white" stroke="none"/></mask><ellipse vector-effect="non-scaling-stroke" cx="877.7499999999992" cy="481.49999999999864" rx="26.75" ry="35.619021166392145" fill="rgb(235,235,235)"/><ellipse vector-effect="non-scaling-stroke" cx="877.7499999999992" cy="481.49999999999864" rx="26.75" ry="35.619021166392145" fill="rgb(235,235,235)" mask="url(#_mask_y8kXldmhatlDOzTTcQXRx4EiRdKaI1Sm)" stroke-width="8" stroke="rgb(0,0,0)" stroke-linejoin="miter" stroke-linecap="square" stroke-miterlimit="3"/><path d=" M 857.25 467.887 Q 882.5 476.559 898.25 466.887 Q 889.187 445.528 878.25 445.887 Q 867.312 446.246 857.25 467.887 Z " fill="rgb(199,207,221)"/><mask id="_mask_SKNm3Gh7MqHPGp8laUMvq56Tca2I8w2S"><path d=" M 910.379 427.689 C 910.795 429.726 911 431.839 911 434 C 911 452.213 896.437 467 878.5 467 C 860.563 467 846 452.213 846 434 C 846 431.769 846.218 429.59 846.66 427.493 C 838.261 425.534 832 417.992 832 409 C 832 398.514 840.514 390 851 390 C 859.207 390 866.205 395.214 868.865 402.505 C 871.902 401.518 875.142 401 878.5 401 C 882.192 401 885.742 401.627 889.045 402.793 C 891.615 395.349 898.688 390 907 390 C 917.486 390 926 398.514 926 409 C 926 418.332 919.258 426.101 910.379 427.689 Z " fill-rule="evenodd" fill="white" stroke="none"/></mask><path d=" M 910.379 427.689 C 910.795 429.726 911 431.839 911 434 C 911 452.213 896.437 467 878.5 467 C 860.563 467 846 452.213 846 434 C 846 431.769 846.218 429.59 846.66 427.493 C 838.261 425.534 832 417.992 832 409 C 832 398.514 840.514 390 851 390 C 859.207 390 866.205 395.214 868.865 402.505 C 871.902 401.518 875.142 401 878.5 401 C 882.192 401 885.742 401.627 889.045 402.793 C 891.615 395.349 898.688 390 907 390 C 917.486 390 926 398.514 926 409 C 926 418.332 919.258 426.101 910.379 427.689 Z " fill-rule="evenodd" fill="rgb(235,235,235)"/><path d=" M 910.379 427.689 C 910.795 429.726 911 431.839 911 434 C 911 452.213 896.437 467 878.5 467 C 860.563 467 846 452.213 846 434 C 846 431.769 846.218 429.59 846.66 427.493 C 838.261 425.534 832 417.992 832 409 C 832 398.514 840.514 390 851 390 C 859.207 390 866.205 395.214 868.865 402.505 C 871.902 401.518 875.142 401 878.5 401 C 882.192 401 885.742 401.627 889.045 402.793 C 891.615 395.349 898.688 390 907 390 C 917.486 390 926 398.514 926 409 C 926 418.332 919.258 426.101 910.379 427.689 Z " fill-rule="evenodd" fill="rgb(235,235,235)" mask="url(#_mask_SKNm3Gh7MqHPGp8laUMvq56Tca2I8w2S)" vector-effect="non-scaling-stroke" stroke-width="8" stroke="rgb(0,0,0)" stroke-linejoin="miter" stroke-linecap="square" stroke-miterlimit="3"/><ellipse vector-effect="non-scaling-stroke" cx="858.9999999999986" cy="438.49999999999943" rx="2.5" ry="6.5" fill="rgb(0,0,0)"/><ellipse vector-effect="non-scaling-stroke" cx="886.9999999999999" cy="438.49999999999943" rx="2.5" ry="6.5" fill="rgb(0,0,0)"/><ellipse vector-effect="non-scaling-stroke" cx="894.7499999999999" cy="447.7499999999998" rx="5.25" ry="5.75" fill="rgb(246,129,135)"/><ellipse vector-effect="non-scaling-stroke" cx="851.2499999999985" cy="447.7499999999998" rx="5.25" ry="5.75" fill="rgb(246,129,135)"/></g><g><mask id="_mask_rOfilwHrFPrJymsOp3MzwJ6skxR1xjZh"><ellipse vector-effect="non-scaling-stroke" cx="146.25000000000023" cy="481.49999999999864" rx="26.75000000000003" ry="35.619021166392145" fill="white" stroke="none"/></mask><ellipse vector-effect="non-scaling-stroke" cx="146.25000000000023" cy="481.49999999999864" rx="26.75000000000003" ry="35.619021166392145" fill="rgb(235,235,235)"/><ellipse vector-effect="non-scaling-stroke" cx="146.25000000000023" cy="481.49999999999864" rx="26.75000000000003" ry="35.619021166392145" fill="rgb(235,235,235)" mask="url(#_mask_rOfilwHrFPrJymsOp3MzwJ6skxR1xjZh)" stroke-width="8" stroke="rgb(0,0,0)" stroke-linejoin="miter" stroke-linecap="square" stroke-miterlimit="3"/><path d=" M 125.75 467.887 Q 151 476.559 166.75 466.887 Q 157.688 445.528 146.75 445.887 Q 135.813 446.246 125.75 467.887 Z " fill="rgb(199,207,221)"/><mask id="_mask_LmuoxmAB3oYksMvTWHD7QhbDj4dKZkwA"><path d=" M 113.621 427.689 C 113.205 429.726 113 431.839 113 434 C 113 452.213 127.563 467 145.5 467 C 163.437 467 178 452.213 178 434 C 178 431.769 177.782 429.59 177.34 427.493 C 185.739 425.534 192 417.992 192 409 C 192 398.514 183.486 390 173 390 C 164.793 390 157.795 395.214 155.135 402.505 C 152.098 401.518 148.858 401 145.5 401 C 141.808 401 138.258 401.627 134.955 402.793 C 132.385 395.349 125.312 390 117 390 C 106.514 390 98 398.514 98 409 C 98 418.332 104.742 426.101 113.621 427.689 Z " fill-rule="evenodd" fill="white" stroke="none"/></mask><path d=" M 113.621 427.689 C 113.205 429.726 113 431.839 113 434 C 113 452.213 127.563 467 145.5 467 C 163.437 467 178 452.213 178 434 C 178 431.769 177.782 429.59 177.34 427.493 C 185.739 425.534 192 417.992 192 409 C 192 398.514 183.486 390 173 390 C 164.793 390 157.795 395.214 155.135 402.505 C 152.098 401.518 148.858 401 145.5 401 C 141.808 401 138.258 401.627 134.955 402.793 C 132.385 395.349 125.312 390 117 390 C 106.514 390 98 398.514 98 409 C 98 418.332 104.742 426.101 113.621 427.689 Z " fill-rule="evenodd" fill="rgb(235,235,235)"/><path d=" M 113.621 427.689 C 113.205 429.726 113 431.839 113 434 C 113 452.213 127.563 467 145.5 467 C 163.437 467 178 452.213 178 434 C 178 431.769 177.782 429.59 177.34 427.493 C 185.739 425.534 192 417.992 192 409 C 192 398.514 183.486 390 173 390 C 164.793 390 157.795 395.214 155.135 402.505 C 152.098 401.518 148.858 401 145.5 401 C 141.808 401 138.258 401.627 134.955 402.793 C 132.385 395.349 125.312 390 117 390 C 106.514 390 98 398.514 98 409 C 98 418.332 104.742 426.101 113.621 427.689 Z " fill-rule="evenodd" fill="rgb(235,235,235)" mask="url(#_mask_LmuoxmAB3oYksMvTWHD7QhbDj4dKZkwA)" vector-effect="non-scaling-stroke" stroke-width="8" stroke="rgb(0,0,0)" stroke-linejoin="miter" stroke-linecap="square" stroke-miterlimit="3"/><ellipse vector-effect="non-scaling-stroke" cx="165.00000000000074" cy="438.49999999999943" rx="2.5" ry="6.5" fill="rgb(0,0,0)"/><ellipse vector-effect="non-scaling-stroke" cx="136.99999999999955" cy="438.49999999999943" rx="2.5" ry="6.5" fill="rgb(0,0,0)"/><ellipse vector-effect="non-scaling-stroke" cx="129.24999999999955" cy="447.7499999999998" rx="5.249999999999993" ry="5.75" fill="rgb(246,129,135)"/><ellipse vector-effect="non-scaling-stroke" cx="172.75000000000074" cy="447.74999999999994" rx="5.25" ry="5.75" fill="rgb(246,129,135)"/></g><mask id="_mask_O9uMbZeGJYqElKDDuITTcI06Khn9Q6CV"><path d=" M 909.155 415.459 C 908.492 413.437 907.047 411.591 904.97 410.394 C 902.828 409.159 900.426 408.851 898.294 409.354 L 897.798 408.496 L 891.73 398 L 885.674 408.504 L 879.618 419.008 L 891.743 419 L 892.733 418.999 C 893.367 421.096 894.837 423.021 896.979 424.255 C 899.055 425.452 901.377 425.778 903.459 425.339 L 903.82 425.963 L 909.889 436.459 L 915.944 425.955 L 922 415.451 L 909.876 415.459 L 909.155 415.459 Z " fill-rule="evenodd" fill="white" stroke="none"/></mask><path d=" M 909.155 415.459 C 908.492 413.437 907.047 411.591 904.97 410.394 C 902.828 409.159 900.426 408.851 898.294 409.354 L 897.798 408.496 L 891.73 398 L 885.674 408.504 L 879.618 419.008 L 891.743 419 L 892.733 418.999 C 893.367 421.096 894.837 423.021 896.979 424.255 C 899.055 425.452 901.377 425.778 903.459 425.339 L 903.82 425.963 L 909.889 436.459 L 915.944 425.955 L 922 415.451 L 909.876 415.459 L 909.155 415.459 Z " fill-rule="evenodd" fill="rgb(255,80,0)"/><path d=" M 909.155 415.459 C 908.492 413.437 907.047 411.591 904.97 410.394 C 902.828 409.159 900.426 408.851 898.294 409.354 L 897.798 408.496 L 891.73 398 L 885.674 408.504 L 879.618 419.008 L 891.743 419 L 892.733 418.999 C 893.367 421.096 894.837 423.021 896.979 424.255 C 899.055 425.452 901.377 425.778 903.459 425.339 L 903.82 425.963 L 909.889 436.459 L 915.944 425.955 L 922 415.451 L 909.876 415.459 L 909.155 415.459 Z " fill-rule="evenodd" fill="rgb(255,80,0)" mask="url(#_mask_O9uMbZeGJYqElKDDuITTcI06Khn9Q6CV)" vector-effect="non-scaling-stroke" stroke-width="6" stroke="rgb(0,0,0)" stroke-linejoin="miter" stroke-linecap="square" stroke-miterlimit="3"/><mask id="_mask_tiHGaaCeBrwkBkF03HfsPO7fY1dkgVzO"><path d=" M 154.365 459.989 C 152.779 458.569 150.605 457.693 148.208 457.695 C 145.736 457.696 143.502 458.63 141.906 460.132 L 141.048 459.637 L 130.544 453.581 L 130.552 465.706 L 130.56 477.83 L 141.056 471.761 L 141.913 471.265 C 143.51 472.765 145.746 473.696 148.218 473.695 C 150.615 473.693 152.788 472.815 154.372 471.393 L 154.996 471.753 L 165.5 477.808 L 165.492 465.684 L 165.485 453.56 L 154.989 459.628 L 154.365 459.989 Z " fill-rule="evenodd" fill="white" stroke="none"/></mask><path d=" M 154.365 459.989 C 152.779 458.569 150.605 457.693 148.208 457.695 C 145.736 457.696 143.502 458.63 141.906 460.132 L 141.048 459.637 L 130.544 453.581 L 130.552 465.706 L 130.56 477.83 L 141.056 471.761 L 141.913 471.265 C 143.51 472.765 145.746 473.696 148.218 473.695 C 150.615 473.693 152.788 472.815 154.372 471.393 L 154.996 471.753 L 165.5 477.808 L 165.492 465.684 L 165.485 453.56 L 154.989 459.628 L 154.365 459.989 Z " fill-rule="evenodd" fill="rgb(0,152,220)"/><path d=" M 154.365 459.989 C 152.779 458.569 150.605 457.693 148.208 457.695 C 145.736 457.696 143.502 458.63 141.906 460.132 L 141.048 459.637 L 130.544 453.581 L 130.552 465.706 L 130.56 477.83 L 141.056 471.761 L 141.913 471.265 C 143.51 472.765 145.746 473.696 148.218 473.695 C 150.615 473.693 152.788 472.815 154.372 471.393 L 154.996 471.753 L 165.5 477.808 L 165.492 465.684 L 165.485 453.56 L 154.989 459.628 L 154.365 459.989 Z " fill-rule="evenodd" fill="rgb(0,152,220)" mask="url(#_mask_tiHGaaCeBrwkBkF03HfsPO7fY1dkgVzO)" vector-effect="non-scaling-stroke" stroke-width="6" stroke="rgb(0,0,0)" stroke-linejoin="miter" stroke-linecap="square" stroke-miterlimit="3"/></g><g style="isolation:isolate"><mask id="_mask_41fYzGje5o4BwwdKIglkxJuNYF5qS9v8"><rect x="76" y="515" width="96" height="57" fill="white" stroke="none"/></mask><rect x="76" y="515" width="96" height="57" transform="matrix(1,0,0,1,0,0)" fill="rgb(191,111,74)"/><rect x="76" y="515" width="96" height="57" transform="matrix(1,0,0,1,0,0)" fill="rgb(191,111,74)" mask="url(#_mask_41fYzGje5o4BwwdKIglkxJuNYF5qS9v8)" vector-effect="non-scaling-stroke" stroke-width="8" stroke="rgb(0,0,0)" stroke-linejoin="miter" stroke-linecap="square" stroke-miterlimit="2"/><mask id="_mask_3DTMETFuhKyh976ds3SaEqP4dpZRT9at"><rect x="124" y="515" width="96" height="57" fill="white" stroke="none"/></mask><rect x="124" y="515" width="96" height="57" transform="matrix(1,0,0,1,0,0)" fill="rgb(230,156,105)"/><rect x="124" y="515" width="96" height="57" transform="matrix(1,0,0,1,0,0)" fill="rgb(230,156,105)" mask="url(#_mask_3DTMETFuhKyh976ds3SaEqP4dpZRT9at)" vector-effect="non-scaling-stroke" stroke-width="8" stroke="rgb(0,0,0)" stroke-linejoin="miter" stroke-linecap="square" stroke-miterlimit="2"/><mask id="_mask_v0DqU8ORqCijjSzYBOQnwcLNd4HM8EzE"><rect x="850" y="515" width="96" height="57" fill="white" stroke="none"/></mask><rect x="850" y="515" width="96" height="57" transform="matrix(1,0,0,1,0,0)" fill="rgb(191,111,74)"/><rect x="850" y="515" width="96" height="57" transform="matrix(1,0,0,1,0,0)" fill="rgb(191,111,74)" mask="url(#_mask_v0DqU8ORqCijjSzYBOQnwcLNd4HM8EzE)" vector-effect="non-scaling-stroke" stroke-width="8" stroke="rgb(0,0,0)" stroke-linejoin="miter" stroke-linecap="square" stroke-miterlimit="2"/><mask id="_mask_qjR7RLlhaxzOeVjmx3mqjGk2CmEXMoBA"><rect x="802" y="515" width="96" height="57" fill="white" stroke="none"/></mask><rect x="802" y="515" width="96" height="57" transform="matrix(1,0,0,1,0,0)" fill="rgb(230,156,105)"/><rect x="802" y="515" width="96" height="57" transform="matrix(1,0,0,1,0,0)" fill="rgb(230,156,105)" mask="url(#_mask_qjR7RLlhaxzOeVjmx3mqjGk2CmEXMoBA)" vector-effect="non-scaling-stroke" stroke-width="8" stroke="rgb(0,0,0)" stroke-linejoin="miter" stroke-linecap="square" stroke-miterlimit="2"/></g></g></svg>