<?xml version="1.0" encoding="UTF-8" standalone="no"?><!-- Generator: Gravit.io --><svg xmlns="http://www.w3.org/2000/svg" xmlns:xlink="http://www.w3.org/1999/xlink" style="isolation:isolate" viewBox="0 0 1024 768" width="1024pt" height="768pt"><defs><clipPath id="_clipPath_N6MuXXlRW3nNPLp0f1YPOYlydsdPkhVx"><rect width="1024" height="768"/></clipPath></defs><g clip-path="url(#_clipPath_N6MuXXlRW3nNPLp0f1YPOYlydsdPkhVx)"><rect width="1024" height="768" style="fill:rgb(0,0,0)" fill-opacity="0"/><g style="isolation:isolate"><g><mask id="_mask_u7NfpuNlV9Y2z9095xMqEmiFLUiwrdWk"><rect x="845" y="580" width="173" height="86.5" fill="white" stroke="none"/></mask><rect x="845" y="580" width="173" height="86.5" transform="matrix(1,0,0,1,0,0)" fill="rgb(235,235,235)"/><rect x="845" y="580" width="173" height="86.5" transform="matrix(1,0,0,1,0,0)" fill="rgb(235,235,235)" mask="url(#_mask_u7NfpuNlV9Y2z9095xMqEmiFLUiwrdWk)" vector-effect="non-scaling-stroke" stroke-width="8" stroke="rgb(0,0,0)" stroke-linejoin="miter" stroke-linecap="square" stroke-miterlimit="2"/><mask id="_mask_nMysqe1fSdBnxHMYDo548po5rFip4ylK"><rect x="846" y="650.667" width="171" height="13.333" fill="white" stroke="none"/></mask><rect x="846" y="650.667" width="171" height="13.333" transform="matrix(1,0,0,1,0,0)" fill="rgb(0,0,0)"/><rect x="846" y="650.667" width="171" height="13.333" transform="matrix(1,0,0,1,0,0)" fill="rgb(0,0,0)" mask="url(#_mask_nMysqe1fSdBnxHMYDo548po5rFip4ylK)" vector-effect="non-scaling-stroke" stroke-width="8" stroke="rgb(0,0,0)" stroke-linejoin="miter" stroke-linecap="square" stroke-miterlimit="2"/></g><g><mask id="_mask_U3icXnhhFlW7H3tkNhgDrIPnqLQJxO6u"><ellipse vector-effect="non-scaling-stroke" cx="927.7499999999993" cy="768.4999999999991" rx="26.75" ry="35.619021166392145" fill="white" stroke="none"/></mask><ellipse vector-effect="non-scaling-stroke" cx="927.7499999999993" cy="768.4999999999991" rx="26.75" ry="35.619021166392145" fill="rgb(199,207,221)"/><ellipse vector-effect="non-scaling-stroke" cx="927.7499999999993" cy="768.4999999999991" rx="26.75" ry="35.619021166392145" fill="rgb(199,207,221)" mask="url(#_mask_U3icXnhhFlW7H3tkNhgDrIPnqLQJxO6u)" stroke-width="8" stroke="rgb(0,0,0)" stroke-linejoin="miter" stroke-linecap="square" stroke-miterlimit="3"/><path d=" M 907.25 754.887 Q 932.5 763.559 948.25 753.887 Q 939.187 732.528 928.25 732.887 Q 917.312 733.246 907.25 754.887 Z " fill="rgb(146,161,185)"/><mask id="_mask_kmMSpUkdYf4Su8ker5lhpHb2kvZszcSU"><path d=" M 960.379 714.689 C 960.795 716.726 961 718.839 961 721 C 961 739.213 946.437 754 928.5 754 C 910.563 754 896 739.213 896 721 C 896 718.769 896.218 716.59 896.66 714.493 C 888.261 712.534 882 704.992 882 696 C 882 685.514 890.514 677 901 677 C 909.207 677 916.205 682.214 918.865 689.505 C 921.902 688.518 925.142 688 928.5 688 C 932.192 688 935.742 688.627 939.045 689.793 C 941.615 682.349 948.688 677 957 677 C 967.486 677 976 685.514 976 696 C 976 705.332 969.258 713.101 960.379 714.689 Z " fill-rule="evenodd" fill="white" stroke="none"/></mask><path d=" M 960.379 714.689 C 960.795 716.726 961 718.839 961 721 C 961 739.213 946.437 754 928.5 754 C 910.563 754 896 739.213 896 721 C 896 718.769 896.218 716.59 896.66 714.493 C 888.261 712.534 882 704.992 882 696 C 882 685.514 890.514 677 901 677 C 909.207 677 916.205 682.214 918.865 689.505 C 921.902 688.518 925.142 688 928.5 688 C 932.192 688 935.742 688.627 939.045 689.793 C 941.615 682.349 948.688 677 957 677 C 967.486 677 976 685.514 976 696 C 976 705.332 969.258 713.101 960.379 714.689 Z " fill-rule="evenodd" fill="rgb(199,207,221)"/><path d=" M 960.379 714.689 C 960.795 716.726 961 718.839 961 721 C 961 739.213 946.437 754 928.5 754 C 910.563 754 896 739.213 896 721 C 896 718.769 896.218 716.59 896.66 714.493 C 888.261 712.534 882 704.992 882 696 C 882 685.514 890.514 677 901 677 C 909.207 677 916.205 682.214 918.865 689.505 C 921.902 688.518 925.142 688 928.5 688 C 932.192 688 935.742 688.627 939.045 689.793 C 941.615 682.349 948.688 677 957 677 C 967.486 677 976 685.514 976 696 C 976 705.332 969.258 713.101 960.379 714.689 Z " fill-rule="evenodd" fill="rgb(199,207,221)" mask="url(#_mask_kmMSpUkdYf4Su8ker5lhpHb2kvZszcSU)" vector-effect="non-scaling-stroke" stroke-width="8" stroke="rgb(0,0,0)" stroke-linejoin="miter" stroke-linecap="square" stroke-miterlimit="3"/><ellipse vector-effect="non-scaling-stroke" cx="943.4999999999998" cy="725.4999999999997" rx="2.5" ry="6.5" fill="rgb(0,0,0)"/><ellipse vector-effect="non-scaling-stroke" cx="913.9999999999993" cy="725.4999999999997" rx="2.5" ry="6.5" fill="rgb(0,0,0)"/><ellipse vector-effect="non-scaling-stroke" cx="951.2499999999997" cy="734.75" rx="5.25" ry="5.75" fill="rgb(246,129,135)"/><ellipse vector-effect="non-scaling-stroke" cx="906.2499999999992" cy="734.75" rx="5.25" ry="5.75" fill="rgb(246,129,135)"/><mask id="_mask_TkSM6N6WwtIkuhsyIIayK4KnSB9CvkVl"><ellipse vector-effect="non-scaling-stroke" cx="983.0000000000003" cy="666.5" rx="12" ry="14.5" fill="white" stroke="none"/></mask><ellipse vector-effect="non-scaling-stroke" cx="983.0000000000003" cy="666.5" rx="12" ry="14.5" fill="rgb(199,207,221)"/><ellipse vector-effect="non-scaling-stroke" cx="983.0000000000003" cy="666.5" rx="12" ry="14.5" fill="rgb(199,207,221)" mask="url(#_mask_TkSM6N6WwtIkuhsyIIayK4KnSB9CvkVl)" stroke-width="8" stroke="rgb(0,0,0)" stroke-linejoin="miter" stroke-linecap="square" stroke-miterlimit="3"/><mask id="_mask_vWLtSqhBXYBKPynd8xFhPuOcKH04A1EX"><ellipse vector-effect="non-scaling-stroke" cx="875.0000000000003" cy="666.5" rx="12" ry="14.5" fill="white" stroke="none"/></mask><ellipse vector-effect="non-scaling-stroke" cx="875.0000000000003" cy="666.5" rx="12" ry="14.5" fill="rgb(199,207,221)"/><ellipse vector-effect="non-scaling-stroke" cx="875.0000000000003" cy="666.5" rx="12" ry="14.5" fill="rgb(199,207,221)" mask="url(#_mask_vWLtSqhBXYBKPynd8xFhPuOcKH04A1EX)" stroke-width="8" stroke="rgb(0,0,0)" stroke-linejoin="miter" stroke-linecap="square" stroke-miterlimit="3"/><circle vector-effect="non-scaling-stroke" cx="900.9999999999992" cy="696.4999999999997" r="10.5" fill="rgb(246,129,135)"/><circle vector-effect="non-scaling-stroke" cx="956.4999999999995" cy="696.4999999999997" r="10.5" fill="rgb(246,129,135)"/></g></g></g></svg>