<?xml version="1.0" encoding="UTF-8" standalone="no"?><!-- Generator: Gravit.io --><svg xmlns="http://www.w3.org/2000/svg" xmlns:xlink="http://www.w3.org/1999/xlink" style="isolation:isolate" viewBox="0 0 1024 768" width="1024pt" height="768pt"><defs><clipPath id="_clipPath_Y8zeId1vMHVgNLoRSfk6f7iAOgR0q0jy"><rect width="1024" height="768"/></clipPath></defs><g clip-path="url(#_clipPath_Y8zeId1vMHVgNLoRSfk6f7iAOgR0q0jy)"><rect width="1024" height="768" style="fill:rgb(0,0,0)" fill-opacity="0"/><g style="isolation:isolate"><g><mask id="_mask_ofzAusEVpt6uDpqQEzDxMIDAtLBURi9j"><rect x="662" y="580" width="173" height="86.5" fill="white" stroke="none"/></mask><rect x="662" y="580" width="173" height="86.5" transform="matrix(1,0,0,1,0,0)" fill="rgb(235,235,235)"/><rect x="662" y="580" width="173" height="86.5" transform="matrix(1,0,0,1,0,0)" fill="rgb(235,235,235)" mask="url(#_mask_ofzAusEVpt6uDpqQEzDxMIDAtLBURi9j)" vector-effect="non-scaling-stroke" stroke-width="8" stroke="rgb(0,0,0)" stroke-linejoin="miter" stroke-linecap="square" stroke-miterlimit="2"/><mask id="_mask_RWRojbDFP9O8LYK528eFrCjg5leb2VqZ"><rect x="664" y="650.667" width="171" height="13.333" fill="white" stroke="none"/></mask><rect x="664" y="650.667" width="171" height="13.333" transform="matrix(1,0,0,1,0,0)" fill="rgb(0,0,0)"/><rect x="664" y="650.667" width="171" height="13.333" transform="matrix(1,0,0,1,0,0)" fill="rgb(0,0,0)" mask="url(#_mask_RWRojbDFP9O8LYK528eFrCjg5leb2VqZ)" vector-effect="non-scaling-stroke" stroke-width="8" stroke="rgb(0,0,0)" stroke-linejoin="miter" stroke-linecap="square" stroke-miterlimit="2"/></g><g><mask id="_mask_xsDBXlhXLcbJx1YtYJEep9vhlHapjO1e"><ellipse vector-effect="non-scaling-stroke" cx="744.7499999999993" cy="768.499999999999" rx="26.75" ry="35.619021166392145" fill="white" stroke="none"/></mask><ellipse vector-effect="non-scaling-stroke" cx="744.7499999999993" cy="768.499999999999" rx="26.75" ry="35.619021166392145" fill="rgb(235,235,235)"/><ellipse vector-effect="non-scaling-stroke" cx="744.7499999999993" cy="768.499999999999" rx="26.75" ry="35.619021166392145" fill="rgb(235,235,235)" mask="url(#_mask_xsDBXlhXLcbJx1YtYJEep9vhlHapjO1e)" stroke-width="8" stroke="rgb(0,0,0)" stroke-linejoin="miter" stroke-linecap="square" stroke-miterlimit="3"/><path d=" M 724 755 Q 749.25 763.672 765 754 Q 755.938 732.641 745 733 Q 734.063 733.359 724 755 Z " fill="rgb(199,207,221)"/><mask id="_mask_eannR9cqMGPz5GPZli8Ubb6HWgW6Jxpk"><path d=" M 777.379 714.689 C 777.795 716.726 778 718.839 778 721 C 778 739.213 763.437 754 745.5 754 C 727.563 754 713 739.213 713 721 C 713 718.769 713.218 716.59 713.66 714.493 C 705.261 712.534 699 704.992 699 696 C 699 685.514 707.514 677 718 677 C 726.207 677 733.205 682.214 735.865 689.505 C 738.902 688.518 742.142 688 745.5 688 C 749.192 688 752.742 688.627 756.045 689.793 C 758.615 682.349 765.688 677 774 677 C 784.486 677 793 685.514 793 696 C 793 705.332 786.258 713.101 777.379 714.689 Z " fill-rule="evenodd" fill="white" stroke="none"/></mask><path d=" M 777.379 714.689 C 777.795 716.726 778 718.839 778 721 C 778 739.213 763.437 754 745.5 754 C 727.563 754 713 739.213 713 721 C 713 718.769 713.218 716.59 713.66 714.493 C 705.261 712.534 699 704.992 699 696 C 699 685.514 707.514 677 718 677 C 726.207 677 733.205 682.214 735.865 689.505 C 738.902 688.518 742.142 688 745.5 688 C 749.192 688 752.742 688.627 756.045 689.793 C 758.615 682.349 765.688 677 774 677 C 784.486 677 793 685.514 793 696 C 793 705.332 786.258 713.101 777.379 714.689 Z " fill-rule="evenodd" fill="rgb(235,235,235)"/><path d=" M 777.379 714.689 C 777.795 716.726 778 718.839 778 721 C 778 739.213 763.437 754 745.5 754 C 727.563 754 713 739.213 713 721 C 713 718.769 713.218 716.59 713.66 714.493 C 705.261 712.534 699 704.992 699 696 C 699 685.514 707.514 677 718 677 C 726.207 677 733.205 682.214 735.865 689.505 C 738.902 688.518 742.142 688 745.5 688 C 749.192 688 752.742 688.627 756.045 689.793 C 758.615 682.349 765.688 677 774 677 C 784.486 677 793 685.514 793 696 C 793 705.332 786.258 713.101 777.379 714.689 Z " fill-rule="evenodd" fill="rgb(235,235,235)" mask="url(#_mask_eannR9cqMGPz5GPZli8Ubb6HWgW6Jxpk)" vector-effect="non-scaling-stroke" stroke-width="8" stroke="rgb(0,0,0)" stroke-linejoin="miter" stroke-linecap="square" stroke-miterlimit="3"/><mask id="_mask_37yNlNinkf3AMLcXqxAQk6QYQKatfEtm"><ellipse vector-effect="non-scaling-stroke" cx="800.0000000000002" cy="666.5" rx="12" ry="14.5" fill="white" stroke="none"/></mask><ellipse vector-effect="non-scaling-stroke" cx="800.0000000000002" cy="666.5" rx="12" ry="14.5" fill="rgb(235,235,235)"/><ellipse vector-effect="non-scaling-stroke" cx="800.0000000000002" cy="666.5" rx="12" ry="14.5" fill="rgb(235,235,235)" mask="url(#_mask_37yNlNinkf3AMLcXqxAQk6QYQKatfEtm)" stroke-width="8" stroke="rgb(0,0,0)" stroke-linejoin="miter" stroke-linecap="square" stroke-miterlimit="3"/><mask id="_mask_z0fAabvElgHPeW89Q9CoWS70yDD0v16I"><ellipse vector-effect="non-scaling-stroke" cx="692.0000000000002" cy="666.5" rx="12" ry="14.5" fill="white" stroke="none"/></mask><ellipse vector-effect="non-scaling-stroke" cx="692.0000000000002" cy="666.5" rx="12" ry="14.5" fill="rgb(235,235,235)"/><ellipse vector-effect="non-scaling-stroke" cx="692.0000000000002" cy="666.5" rx="12" ry="14.5" fill="rgb(235,235,235)" mask="url(#_mask_z0fAabvElgHPeW89Q9CoWS70yDD0v16I)" stroke-width="8" stroke="rgb(0,0,0)" stroke-linejoin="miter" stroke-linecap="square" stroke-miterlimit="3"/><ellipse vector-effect="non-scaling-stroke" cx="730.9999999999991" cy="725.4999999999997" rx="2.5" ry="6.5" fill="rgb(0,0,0)"/><ellipse vector-effect="non-scaling-stroke" cx="760.4999999999995" cy="725.4999999999997" rx="2.5" ry="6.5" fill="rgb(0,0,0)"/><ellipse vector-effect="non-scaling-stroke" cx="768.2499999999995" cy="734.75" rx="5.25" ry="5.75" fill="rgb(246,129,135)"/><ellipse vector-effect="non-scaling-stroke" cx="723.2499999999991" cy="734.75" rx="5.25" ry="5.75" fill="rgb(246,129,135)"/></g></g></g></svg>