<?xml version="1.0" encoding="UTF-8" standalone="no"?><!-- Generator: Gravit.io --><svg xmlns="http://www.w3.org/2000/svg" xmlns:xlink="http://www.w3.org/1999/xlink" style="isolation:isolate" viewBox="0 0 1024 768" width="1024pt" height="768pt"><defs><clipPath id="_clipPath_N01IFaOdePd3u6Odw9XZWxBSzicrJMpQ"><rect width="1024" height="768"/></clipPath></defs><g clip-path="url(#_clipPath_N01IFaOdePd3u6Odw9XZWxBSzicrJMpQ)"><rect width="1024" height="768" style="fill:rgb(0,0,0)" fill-opacity="0"/><g style="isolation:isolate"><path d=" M 493.715 497.799 L 461.723 567.908 Q 454.181 572.875 433.642 564.525 C 426.079 559.91 439.922 551.713 444.993 553.072 L 481.394 494.497" fill="rgb(246,202,159)" vector-effect="non-scaling-stroke" stroke-width="4" stroke="rgb(0,0,0)" stroke-linejoin="miter" stroke-linecap="square" stroke-miterlimit="3"/><path d=" M 514.803 496.092 L 546.795 566.201 Q 554.337 571.168 574.876 562.817 C 582.439 558.203 568.596 550.006 563.525 551.365 L 527.124 492.79" fill="rgb(246,202,159)" vector-effect="non-scaling-stroke" stroke-width="4" stroke="rgb(0,0,0)" stroke-linejoin="miter" stroke-linecap="square" stroke-miterlimit="3"/><path d=" M 506.365 424.745 Q 531.074 431.044 545.75 417 Q 533.083 417 543.75 384 L 506.224 424.709 Q 506.295 424.727 506.365 424.745 Z  M 543.75 384 Q 510.563 342.687 469.75 384 Q 479.647 417 466.981 417 Q 481.657 431.044 506.365 424.745 Q 506.436 424.727 506.506 424.709 L 543.75 384 Z " fill-rule="evenodd" fill="rgb(138,72,54)" vector-effect="non-scaling-stroke" stroke-width="4" stroke="rgb(0,0,0)" stroke-linejoin="miter" stroke-linecap="square" stroke-miterlimit="3"/><path d=" M 506.506 395.403 Q 504.695 398.797 503.506 399.403 Q 506.453 400.977 506.506 402.403" fill="none" vector-effect="non-scaling-stroke" stroke-width="2" stroke="rgb(0,0,0)" stroke-linejoin="round" stroke-linecap="square" stroke-miterlimit="3"/><mask id="_mask_8MPqCWfGxgjNkwFVgMMUw9oAcuD0aAZs"><ellipse vector-effect="non-scaling-stroke" cx="506.5061669829229" cy="388.35863377609104" rx="29.02371916508534" ry="37.47722960151799" fill="white" stroke="none"/></mask><ellipse vector-effect="non-scaling-stroke" cx="506.5061669829229" cy="388.35863377609104" rx="29.02371916508534" ry="37.47722960151799" fill="rgb(246,202,159)"/><ellipse vector-effect="non-scaling-stroke" cx="506.5061669829229" cy="388.35863377609104" rx="29.02371916508534" ry="37.47722960151799" fill="rgb(246,202,159)" mask="url(#_mask_8MPqCWfGxgjNkwFVgMMUw9oAcuD0aAZs)" stroke-width="8" stroke="rgb(0,0,0)" stroke-linejoin="miter" stroke-linecap="square" stroke-miterlimit="3"/><g><path d=" M 524.259 402.73 Q 528.617 400.792 529.331 393.713 L 532.148 386.386 L 527.076 388.64 Q 518.949 383.445 516.932 393.149 L 524.259 402.73 Z " fill="rgb(0,0,0)" vector-effect="non-scaling-stroke" stroke-width="1" stroke="rgb(0,0,0)" stroke-linejoin="miter" stroke-linecap="square" stroke-miterlimit="3"/><ellipse vector-effect="non-scaling-stroke" cx="521.7224857685012" cy="395.96679316888026" rx="5.917457305502808" ry="8.453510436432623" fill="rgb(235,235,235)"/><ellipse vector-effect="non-scaling-stroke" cx="520.313567362429" cy="397.0939278937381" rx="3.9449715370019476" ry="6.762808349146098" fill="rgb(0,0,0)"/><path d=" M 510.29 409.75 C 510.29 413.483 508.522 416.513 506.345 416.513 C 504.168 416.513 502.4 413.483 502.4 409.75 C 502.4 406.018 504.168 402.987 506.345 402.987 C 508.522 402.987 510.29 406.018 510.29 409.75 Z " fill="rgb(0,0,0)"/></g><g><path d=" M 488.754 402.73 Q 484.395 400.792 483.682 393.713 L 480.864 386.386 L 485.936 388.64 Q 494.064 383.445 496.08 393.149 L 488.754 402.73 Z " fill="rgb(0,0,0)" vector-effect="non-scaling-stroke" stroke-width="1" stroke="rgb(0,0,0)" stroke-linejoin="miter" stroke-linecap="square" stroke-miterlimit="3"/><ellipse vector-effect="non-scaling-stroke" cx="491.2898481973437" cy="395.96679316888026" rx="5.9174573055028645" ry="8.453510436432623" fill="rgb(235,235,235)"/><ellipse vector-effect="non-scaling-stroke" cx="492.6987666034161" cy="397.0939278937381" rx="3.9449715370018907" ry="6.762808349146098" fill="rgb(0,0,0)"/></g><ellipse vector-effect="non-scaling-stroke" cx="492.13519924098625" cy="408.92884250474384" rx="4.508538899430732" ry="2.254269449715366" fill="rgb(246,129,135)"/><ellipse vector-effect="non-scaling-stroke" cx="521.4407020872858" cy="408.92884250474384" rx="4.508538899430732" ry="2.254269449715366" fill="rgb(246,129,135)"/><path d=" M 489.75 376 Q 502.726 384.086 506.241 389 Q 509.898 383.859 521.75 376" fill="rgb(138,72,54)" vector-effect="non-scaling-stroke" stroke-width="4" stroke="rgb(0,0,0)" stroke-linejoin="miter" stroke-linecap="square" stroke-miterlimit="3"/><path d=" M 506.367 374.636 Q 521.484 383.641 545.674 384.132 Q 542.715 347.5 506.224 347.5 L 506.224 374.551 Q 506.295 374.594 506.367 374.636 Z  M 506.506 374.551 Q 506.436 374.594 506.367 374.636 Q 491.528 383.641 467.338 384.132 Q 469.733 347.5 506.224 347.5 L 506.506 374.551 Z " fill-rule="evenodd" fill="rgb(138,72,54)" vector-effect="non-scaling-stroke" stroke-width="4" stroke="rgb(0,0,0)" stroke-linejoin="miter" stroke-linecap="square" stroke-miterlimit="3"/><path d=" M 501.152 424.709 Q 501.927 431.19 499.462 434.853 L 512.424 434.853 Q 510.099 429.71 510.733 424.709 L 501.152 424.709 Z " fill="rgb(230,156,105)" vector-effect="non-scaling-stroke" stroke-width="4" stroke="rgb(0,0,0)" stroke-linejoin="miter" stroke-linecap="square" stroke-miterlimit="3"/><path d=" M 494.75 436.228 Q 504.256 433.478 516.506 436.228 Q 508.006 467.978 539.506 507.228 L 470.506 507.228 Q 499.313 478.687 494.75 436.228 Z " fill="rgb(255,80,0)" vector-effect="non-scaling-stroke" stroke-width="4" stroke="rgb(0,0,0)" stroke-linejoin="round" stroke-linecap="square" stroke-miterlimit="3"/><path d=" M 445.7 554.297 Q 456.335 559.039 465.019 559.473 L 461.723 567.908 Q 447.122 571.63 431.262 561.816 Q 434.571 551.46 445.7 554.297 Z " fill="rgb(198,69,36)" vector-effect="non-scaling-stroke" stroke-width="4" stroke="rgb(0,0,0)" stroke-linejoin="miter" stroke-linecap="square" stroke-miterlimit="3"/><path d=" M 563.212 552.484 Q 552.577 557.226 543.894 557.66 L 547.189 566.095 Q 561.791 569.818 577.65 560.003 Q 574.342 549.648 563.212 552.484 Z " fill="rgb(198,69,36)" vector-effect="non-scaling-stroke" stroke-width="4" stroke="rgb(0,0,0)" stroke-linejoin="miter" stroke-linecap="square" stroke-miterlimit="3"/><path d=" M 486.75 486 Q 475 505.625 473.75 506 Q 472.5 506.375 536.75 506 L 524.75 486 L 486.75 486 Z " fill="rgb(255,255,255)" vector-effect="non-scaling-stroke" stroke-width="4" stroke="rgb(0,0,0)" stroke-linejoin="miter" stroke-linecap="square" stroke-miterlimit="3"/><mask id="_mask_z25wGvZGJk3PWWDZd6oQDg9EMaS1AVaw"><circle vector-effect="non-scaling-stroke" cx="587.7500000000002" cy="411.04044117646913" r="11" fill="white" stroke="none"/></mask><circle vector-effect="non-scaling-stroke" cx="587.7500000000002" cy="411.04044117646913" r="11" fill="rgb(246,202,159)"/><circle vector-effect="non-scaling-stroke" cx="587.7500000000002" cy="411.04044117646913" r="11" fill="rgb(246,202,159)" mask="url(#_mask_z25wGvZGJk3PWWDZd6oQDg9EMaS1AVaw)" stroke-width="8" stroke="rgb(0,0,0)" stroke-linejoin="miter" stroke-linecap="square" stroke-miterlimit="3"/><mask id="_mask_e4RKEdWNtNKyW3TzTOnlFL3gUo75M7Wv"><circle vector-effect="non-scaling-stroke" cx="419.5061669829228" cy="415.04044117646913" r="11" fill="white" stroke="none"/></mask><circle vector-effect="non-scaling-stroke" cx="419.5061669829228" cy="415.04044117646913" r="11" fill="rgb(246,202,159)"/><circle vector-effect="non-scaling-stroke" cx="419.5061669829228" cy="415.04044117646913" r="11" fill="rgb(246,202,159)" mask="url(#_mask_e4RKEdWNtNKyW3TzTOnlFL3gUo75M7Wv)" stroke-width="8" stroke="rgb(0,0,0)" stroke-linejoin="miter" stroke-linecap="square" stroke-miterlimit="3"/></g><path d=" M 535.604 385.542 Q 540.494 385.98 540.807 385.995 Q 539.041 392.91 538.041 397.324 L 534.658 397.48 Q 535.713 390.495 535.604 385.542 Z " fill="rgb(138,72,54)"/></g></svg>