<?xml version="1.0" encoding="UTF-8" standalone="no"?><!-- Generator: Gravit.io --><svg xmlns="http://www.w3.org/2000/svg" xmlns:xlink="http://www.w3.org/1999/xlink" style="isolation:isolate" viewBox="0 0 1024 768" width="1024pt" height="768pt"><defs><clipPath id="_clipPath_nDT3TdHl6dIvanXGbkkXLBuqTExv39ks"><rect width="1024" height="768"/></clipPath></defs><g clip-path="url(#_clipPath_nDT3TdHl6dIvanXGbkkXLBuqTExv39ks)"><rect width="1024" height="768" style="fill:rgb(0,0,0)" fill-opacity="0"/><g style="isolation:isolate"><path d=" M 525.311 523.454 L 515.152 527.17 L 522.822 542.084 L 548.547 544.192 L 544.559 527.636 L 529.128 525.011" fill="rgb(246,202,159)" vector-effect="non-scaling-stroke" stroke-width="4" stroke="rgb(0,0,0)" stroke-linejoin="miter" stroke-linecap="square" stroke-miterlimit="3"/><path d=" M 504.256 492.5 L 491.5 568.5 Q 485.5 575.25 463.5 572.5 C 455 570 466.25 558.5 471.5 558.5 L 491.5 492.5" fill="rgb(246,202,159)" vector-effect="non-scaling-stroke" stroke-width="4" stroke="rgb(0,0,0)" stroke-linejoin="miter" stroke-linecap="square" stroke-miterlimit="3"/><path d=" M 505.756 492.5 L 515 541.52 Q 523.031 544.297 532 537 L 518.512 492.5 L 505.756 492.5 Z " fill="rgb(246,202,159)" vector-effect="non-scaling-stroke" stroke-width="4" stroke="rgb(0,0,0)" stroke-linejoin="miter" stroke-linecap="square" stroke-miterlimit="3"/><path d=" M 505.615 426.245 Q 530.324 432.544 545 418.5 Q 532.333 418.5 543 385.5 L 505.474 426.209 Q 505.545 426.227 505.615 426.245 Z  M 543 385.5 Q 509.813 344.187 469 385.5 Q 478.897 418.5 466.231 418.5 Q 480.907 432.544 505.615 426.245 Q 505.686 426.227 505.756 426.209 L 543 385.5 Z " fill-rule="evenodd" fill="rgb(138,72,54)" vector-effect="non-scaling-stroke" stroke-width="4" stroke="rgb(0,0,0)" stroke-linejoin="miter" stroke-linecap="square" stroke-miterlimit="3"/><path d=" M 505.756 396.903 Q 503.945 400.297 502.756 400.903 Q 505.703 402.477 505.756 403.903" fill="none" vector-effect="non-scaling-stroke" stroke-width="2" stroke="rgb(0,0,0)" stroke-linejoin="round" stroke-linecap="square" stroke-miterlimit="3"/><mask id="_mask_k9hab2gWRkXRFOdn3jBjlgI3uNhkzrJe"><ellipse vector-effect="non-scaling-stroke" cx="505.7561669829222" cy="389.85863377609115" rx="29.023719165085367" ry="37.47722960151799" fill="white" stroke="none"/></mask><ellipse vector-effect="non-scaling-stroke" cx="505.7561669829222" cy="389.85863377609115" rx="29.023719165085367" ry="37.47722960151799" fill="rgb(246,202,159)"/><ellipse vector-effect="non-scaling-stroke" cx="505.7561669829222" cy="389.85863377609115" rx="29.023719165085367" ry="37.47722960151799" fill="rgb(246,202,159)" mask="url(#_mask_k9hab2gWRkXRFOdn3jBjlgI3uNhkzrJe)" stroke-width="8" stroke="rgb(0,0,0)" stroke-linejoin="miter" stroke-linecap="square" stroke-miterlimit="3"/><g><path d=" M 523.509 404.23 Q 527.867 402.292 528.581 395.213 L 531.398 387.886 L 526.326 390.14 Q 518.199 384.945 516.182 394.649 L 523.509 404.23 Z " fill="rgb(0,0,0)" vector-effect="non-scaling-stroke" stroke-width="1" stroke="rgb(0,0,0)" stroke-linejoin="miter" stroke-linecap="square" stroke-miterlimit="3"/><ellipse vector-effect="non-scaling-stroke" cx="520.9724857685013" cy="397.46679316888026" rx="5.917457305502808" ry="8.453510436432623" fill="rgb(235,235,235)"/><ellipse vector-effect="non-scaling-stroke" cx="519.5635673624289" cy="398.5939278937381" rx="3.9449715370019476" ry="6.762808349146098" fill="rgb(0,0,0)"/></g><g><ellipse vector-effect="non-scaling-stroke" cx="490.5398481973434" cy="397.46679316888026" rx="5.9174573055028645" ry="8.453510436432623" fill="rgb(246,202,159)"/></g><ellipse vector-effect="non-scaling-stroke" cx="491.3851992409867" cy="410.42884250474384" rx="4.508538899430732" ry="2.254269449715366" fill="rgb(246,129,135)"/><ellipse vector-effect="non-scaling-stroke" cx="520.6907020872862" cy="410.42884250474384" rx="4.508538899430732" ry="2.254269449715366" fill="rgb(246,129,135)"/><path d=" M 515.921 541.52 Q 525.75 542.75 531 537" fill="none" vector-effect="non-scaling-stroke" stroke-width="4" stroke="rgb(0,0,0)" stroke-linejoin="miter" stroke-linecap="square" stroke-miterlimit="3"/><path d=" M 489 377.5 Q 501.976 385.586 505.491 390.5 Q 509.148 385.359 521 377.5" fill="rgb(138,72,54)" vector-effect="non-scaling-stroke" stroke-width="4" stroke="rgb(0,0,0)" stroke-linejoin="miter" stroke-linecap="square" stroke-miterlimit="3"/><path d=" M 500.402 410.992 L 505.474 416.065 L 509.983 410.992" fill="none" vector-effect="non-scaling-stroke" stroke-width="2" stroke="rgb(0,0,0)" stroke-linejoin="miter" stroke-linecap="round" stroke-miterlimit="3"/><path d=" M 505.617 376.136 Q 520.734 385.141 544.924 385.632 Q 541.965 349 505.474 349 L 505.474 376.051 Q 505.545 376.094 505.617 376.136 Z  M 505.756 376.051 Q 505.686 376.094 505.617 376.136 Q 490.778 385.141 466.588 385.632 Q 468.983 349 505.474 349 L 505.756 376.051 Z " fill-rule="evenodd" fill="rgb(138,72,54)" vector-effect="non-scaling-stroke" stroke-width="4" stroke="rgb(0,0,0)" stroke-linejoin="miter" stroke-linecap="square" stroke-miterlimit="3"/><path d=" M 500.402 426.209 Q 501.177 432.69 498.712 436.353 L 511.674 436.353 Q 509.349 431.21 509.983 426.209 L 500.402 426.209 Z " fill="rgb(230,156,105)" vector-effect="non-scaling-stroke" stroke-width="4" stroke="rgb(0,0,0)" stroke-linejoin="miter" stroke-linecap="square" stroke-miterlimit="3"/><path d=" M 494 437.728 Q 503.506 434.978 515.756 437.728 Q 507.256 469.478 538.756 508.728 L 469.756 508.728 Q 498.563 480.187 494 437.728 Z " fill="rgb(255,80,0)" vector-effect="non-scaling-stroke" stroke-width="4" stroke="rgb(0,0,0)" stroke-linejoin="round" stroke-linecap="square" stroke-miterlimit="3"/><path d=" M 472.5 559.5 Q 484 561.328 492.5 559.5 L 491.5 568.5 Q 478.359 575.875 460.5 570.5 Q 461.016 559.641 472.5 559.5 Z " fill="rgb(198,69,36)" vector-effect="non-scaling-stroke" stroke-width="4" stroke="rgb(0,0,0)" stroke-linejoin="miter" stroke-linecap="square" stroke-miterlimit="3"/><path d=" M 486 487.5 Q 474.25 507.125 473 507.5 Q 471.75 507.875 536 507.5 L 524 487.5 L 486 487.5 Z " fill="rgb(255,255,255)" vector-effect="non-scaling-stroke" stroke-width="4" stroke="rgb(0,0,0)" stroke-linejoin="miter" stroke-linecap="square" stroke-miterlimit="3"/><mask id="_mask_wwivChPHYcFPjrk2b53uH84aVoV92GDm"><circle vector-effect="non-scaling-stroke" cx="561" cy="357" r="11" fill="white" stroke="none"/></mask><circle vector-effect="non-scaling-stroke" cx="561" cy="357" r="11" fill="rgb(246,202,159)"/><circle vector-effect="non-scaling-stroke" cx="561" cy="357" r="11" fill="rgb(246,202,159)" mask="url(#_mask_wwivChPHYcFPjrk2b53uH84aVoV92GDm)" stroke-width="8" stroke="rgb(0,0,0)" stroke-linejoin="miter" stroke-linecap="square" stroke-miterlimit="3"/><mask id="_mask_tnvHvCW8PZDnBzhxvxdrQEzsAjrTcR8O"><circle vector-effect="non-scaling-stroke" cx="476.7324478178368" cy="469" r="11" fill="white" stroke="none"/></mask><circle vector-effect="non-scaling-stroke" cx="476.7324478178368" cy="469" r="11" fill="rgb(246,202,159)"/><circle vector-effect="non-scaling-stroke" cx="476.7324478178368" cy="469" r="11" fill="rgb(246,202,159)" mask="url(#_mask_tnvHvCW8PZDnBzhxvxdrQEzsAjrTcR8O)" stroke-width="8" stroke="rgb(0,0,0)" stroke-linejoin="miter" stroke-linecap="square" stroke-miterlimit="3"/><path d=" M 543.554 547.372 Q 545.517 535.894 543.789 527.373 L 552.776 528.479 Q 559.997 541.705 554.413 559.5 Q 543.56 558.857 543.554 547.372 Z " fill="rgb(198,69,36)" vector-effect="non-scaling-stroke" stroke-width="4" stroke="rgb(0,0,0)" stroke-linejoin="miter" stroke-linecap="square" stroke-miterlimit="3"/><path d=" M 532.453 527.625 L 525 526 L 516.672 539.594 L 531.5 540.797 L 536 537 L 532.453 527.625 Z " fill="rgb(246,202,159)"/><path d=" M 488.273 393.104 Q 496.106 393.835 499.505 397.545 Q 490.871 397.797 486.872 400.923" fill="none" vector-effect="non-scaling-stroke" stroke-width="2" stroke="rgb(0,0,0)" stroke-linejoin="miter" stroke-linecap="round" stroke-miterlimit="3"/><path d=" M 476.828 387.016 Q 471.938 387.453 471.625 387.469 Q 473.813 394.922 474.391 398.797 L 477.266 397.359 Q 476.5 391.047 476.828 387.016 Z " fill="rgb(138,72,54)"/><path d=" M 534.875 387.016 Q 539.766 387.453 540.078 387.469 Q 538.313 394.383 537.313 398.797 L 533.93 398.953 Q 534.984 391.969 534.875 387.016 Z " fill="rgb(138,72,54)"/></g></g></svg>