<?xml version="1.0" encoding="UTF-8" standalone="no"?><!-- Generator: Gravit.io --><svg xmlns="http://www.w3.org/2000/svg" xmlns:xlink="http://www.w3.org/1999/xlink" style="isolation:isolate" viewBox="0 0 1024 768" width="1024pt" height="768pt"><defs><clipPath id="_clipPath_7Hj7FCIuEmRDxp19GsaEtASudHDLVxyP"><rect width="1024" height="768"/></clipPath></defs><g clip-path="url(#_clipPath_7Hj7FCIuEmRDxp19GsaEtASudHDLVxyP)"><rect width="1024" height="768" style="fill:rgb(0,0,0)" fill-opacity="0"/><g style="isolation:isolate"><path d=" M 504.09 490.833 L 491.333 566.833 Q 485.333 573.583 463.333 570.833 C 454.833 568.333 466.083 556.833 471.333 556.833 L 491.333 490.833" fill="rgb(246,202,159)" vector-effect="non-scaling-stroke" stroke-width="4" stroke="rgb(0,0,0)" stroke-linejoin="miter" stroke-linecap="square" stroke-miterlimit="3"/><path d=" M 515.886 499.259 L 547.878 569.367 Q 555.421 574.334 575.959 565.984 C 583.522 561.369 569.679 553.173 564.608 554.532 L 528.208 495.957" fill="rgb(246,202,159)" vector-effect="non-scaling-stroke" stroke-width="4" stroke="rgb(0,0,0)" stroke-linejoin="miter" stroke-linecap="square" stroke-miterlimit="3"/><path d=" M 505.449 424.578 Q 530.157 430.877 544.833 416.833 Q 532.167 416.833 542.833 383.833 L 505.308 424.542 Q 505.378 424.56 505.449 424.578 Z  M 542.833 383.833 Q 509.646 342.521 468.833 383.833 Q 478.731 416.833 466.064 416.833 Q 480.74 430.877 505.449 424.578 Q 505.519 424.56 505.59 424.542 L 542.833 383.833 Z " fill-rule="evenodd" fill="rgb(138,72,54)" vector-effect="non-scaling-stroke" stroke-width="4" stroke="rgb(0,0,0)" stroke-linejoin="miter" stroke-linecap="square" stroke-miterlimit="3"/><path d=" M 505.59 395.237 Q 503.779 398.63 502.59 399.237 Q 505.536 400.81 505.59 402.237" fill="none" vector-effect="non-scaling-stroke" stroke-width="2" stroke="rgb(0,0,0)" stroke-linejoin="round" stroke-linecap="square" stroke-miterlimit="3"/><mask id="_mask_wksK8uor8Pxbp6SZvSByFI2BBvW9ruwA"><ellipse vector-effect="non-scaling-stroke" cx="505.5895003162557" cy="388.19196710942435" rx="29.023719165085367" ry="37.47722960151799" fill="white" stroke="none"/></mask><ellipse vector-effect="non-scaling-stroke" cx="505.5895003162557" cy="388.19196710942435" rx="29.023719165085367" ry="37.47722960151799" fill="rgb(246,202,159)"/><ellipse vector-effect="non-scaling-stroke" cx="505.5895003162557" cy="388.19196710942435" rx="29.023719165085367" ry="37.47722960151799" fill="rgb(246,202,159)" mask="url(#_mask_wksK8uor8Pxbp6SZvSByFI2BBvW9ruwA)" stroke-width="8" stroke="rgb(0,0,0)" stroke-linejoin="miter" stroke-linecap="square" stroke-miterlimit="3"/><g><path d=" M 523.342 402.563 Q 527.701 400.626 528.414 393.546 L 531.232 386.219 L 526.16 388.474 Q 518.032 383.278 516.015 392.982 L 523.342 402.563 Z " fill="rgb(0,0,0)" vector-effect="non-scaling-stroke" stroke-width="1" stroke="rgb(0,0,0)" stroke-linejoin="miter" stroke-linecap="square" stroke-miterlimit="3"/><ellipse vector-effect="non-scaling-stroke" cx="520.8058191018346" cy="395.8001265022136" rx="5.917457305502808" ry="8.453510436432623" fill="rgb(235,235,235)"/><ellipse vector-effect="non-scaling-stroke" cx="522.6312756957622" cy="396.9272612270714" rx="3.9449715370019476" ry="6.762808349146098" fill="rgb(0,0,0)"/></g><g><path d=" M 487.837 402.563 Q 483.478 400.626 482.765 393.546 L 479.947 386.219 L 485.019 388.474 Q 493.147 383.278 495.164 392.982 L 487.837 402.563 Z " fill="rgb(0,0,0)" vector-effect="non-scaling-stroke" stroke-width="1" stroke="rgb(0,0,0)" stroke-linejoin="miter" stroke-linecap="square" stroke-miterlimit="3"/><ellipse vector-effect="non-scaling-stroke" cx="490.3731815306768" cy="395.8001265022136" rx="5.9174573055028645" ry="8.453510436432623" fill="rgb(235,235,235)"/><ellipse vector-effect="non-scaling-stroke" cx="493.1883499367492" cy="396.7866362270714" rx="3.9449715370018907" ry="6.762808349146098" fill="rgb(0,0,0)"/></g><ellipse vector-effect="non-scaling-stroke" cx="491.2185325743201" cy="408.76217583807716" rx="4.508538899430732" ry="2.254269449715366" fill="rgb(246,129,135)"/><ellipse vector-effect="non-scaling-stroke" cx="520.5240354206195" cy="408.76217583807716" rx="4.508538899430732" ry="2.254269449715366" fill="rgb(246,129,135)"/><path d=" M 488.833 375.833 Q 501.809 383.919 505.325 388.833 Q 508.981 383.693 520.833 375.833" fill="rgb(138,72,54)" vector-effect="non-scaling-stroke" stroke-width="4" stroke="rgb(0,0,0)" stroke-linejoin="miter" stroke-linecap="square" stroke-miterlimit="3"/><path d=" M 509.816 414.398 L 504.744 409.326 L 500.236 414.398" fill="none" vector-effect="non-scaling-stroke" stroke-width="2" stroke="rgb(0,0,0)" stroke-linejoin="miter" stroke-linecap="round" stroke-miterlimit="3"/><path d=" M 505.45 374.47 Q 520.568 383.474 544.757 383.965 Q 541.799 347.333 505.308 347.333 L 505.308 374.385 Q 505.379 374.427 505.45 374.47 Z  M 505.59 374.385 Q 505.52 374.427 505.45 374.47 Q 490.611 383.474 466.422 383.965 Q 468.817 347.333 505.308 347.333 L 505.59 374.385 Z " fill-rule="evenodd" fill="rgb(138,72,54)" vector-effect="non-scaling-stroke" stroke-width="4" stroke="rgb(0,0,0)" stroke-linejoin="miter" stroke-linecap="square" stroke-miterlimit="3"/><path d=" M 500.236 424.542 Q 501.011 431.023 498.545 434.686 L 511.507 434.686 Q 509.182 429.544 509.816 424.542 L 500.236 424.542 Z " fill="rgb(230,156,105)" vector-effect="non-scaling-stroke" stroke-width="4" stroke="rgb(0,0,0)" stroke-linejoin="miter" stroke-linecap="square" stroke-miterlimit="3"/><path d=" M 493.833 436.061 Q 503.339 433.311 515.59 436.061 Q 507.09 467.811 538.59 507.061 L 469.589 507.061 Q 498.396 478.521 493.833 436.061 Z " fill="rgb(255,80,0)" vector-effect="non-scaling-stroke" stroke-width="4" stroke="rgb(0,0,0)" stroke-linejoin="round" stroke-linecap="square" stroke-miterlimit="3"/><path d=" M 472.333 557.833 Q 483.833 559.661 492.333 557.833 L 491.333 566.833 Q 478.193 574.208 460.333 568.833 Q 460.849 557.974 472.333 557.833 Z " fill="rgb(198,69,36)" vector-effect="non-scaling-stroke" stroke-width="4" stroke="rgb(0,0,0)" stroke-linejoin="miter" stroke-linecap="square" stroke-miterlimit="3"/><path d=" M 564.296 555.651 Q 553.661 560.393 544.977 560.827 L 548.272 569.262 Q 562.874 572.984 578.734 563.17 Q 575.425 552.814 564.296 555.651 Z " fill="rgb(198,69,36)" vector-effect="non-scaling-stroke" stroke-width="4" stroke="rgb(0,0,0)" stroke-linejoin="miter" stroke-linecap="square" stroke-miterlimit="3"/><path d=" M 485.833 485.833 Q 474.083 505.458 472.833 505.833 Q 471.583 506.208 535.833 505.833 L 523.833 485.833 L 485.833 485.833 Z " fill="rgb(255,255,255)" vector-effect="non-scaling-stroke" stroke-width="4" stroke="rgb(0,0,0)" stroke-linejoin="miter" stroke-linecap="square" stroke-miterlimit="3"/><mask id="_mask_LpToEz6kJbb8WAVg0ZODAY9vJMjd3jPF"><circle vector-effect="non-scaling-stroke" cx="589.8333333333336" cy="450.54044117646913" r="11" fill="white" stroke="none"/></mask><circle vector-effect="non-scaling-stroke" cx="589.8333333333336" cy="450.54044117646913" r="11" fill="rgb(246,202,159)"/><circle vector-effect="non-scaling-stroke" cx="589.8333333333336" cy="450.54044117646913" r="11" fill="rgb(246,202,159)" mask="url(#_mask_LpToEz6kJbb8WAVg0ZODAY9vJMjd3jPF)" stroke-width="8" stroke="rgb(0,0,0)" stroke-linejoin="miter" stroke-linecap="square" stroke-miterlimit="3"/><mask id="_mask_tzDzaCwyRtUo8FIZygq82reiZJ2Qnqht"><circle vector-effect="non-scaling-stroke" cx="458.58950031625557" cy="470.87377450980244" r="11" fill="white" stroke="none"/></mask><circle vector-effect="non-scaling-stroke" cx="458.58950031625557" cy="470.87377450980244" r="11" fill="rgb(246,202,159)"/><circle vector-effect="non-scaling-stroke" cx="458.58950031625557" cy="470.87377450980244" r="11" fill="rgb(246,202,159)" mask="url(#_mask_tzDzaCwyRtUo8FIZygq82reiZJ2Qnqht)" stroke-width="8" stroke="rgb(0,0,0)" stroke-linejoin="miter" stroke-linecap="square" stroke-miterlimit="3"/><path d=" M 534.705 385.339 Q 539.596 385.777 539.908 385.792 Q 538.143 392.706 537.143 397.12 L 533.76 397.277 Q 534.814 390.292 534.705 385.339 Z " fill="rgb(138,72,54)"/></g></g></svg>