<?xml version="1.0" encoding="UTF-8" standalone="no"?><!-- Generator: Gravit.io --><svg xmlns="http://www.w3.org/2000/svg" xmlns:xlink="http://www.w3.org/1999/xlink" style="isolation:isolate" viewBox="0 0 1024 768" width="1024pt" height="768pt"><defs><clipPath id="_clipPath_NRkS0IwrYMJI3bCo3dGfmf6zJdNmfgos"><rect width="1024" height="768"/></clipPath></defs><g clip-path="url(#_clipPath_NRkS0IwrYMJI3bCo3dGfmf6zJdNmfgos)"><rect width="1024" height="768" style="fill:rgb(0,0,0)" fill-opacity="0"/><g style="isolation:isolate"><path d=" M 504.256 491 L 491.5 567 Q 485.5 573.75 463.5 571 C 455 568.5 466.25 557 471.5 557 L 491.5 491" fill="rgb(246,202,159)" vector-effect="non-scaling-stroke" stroke-width="4" stroke="rgb(0,0,0)" stroke-linejoin="miter" stroke-linecap="square" stroke-miterlimit="3"/><path d=" M 505.756 491 L 518.512 567 Q 524.512 573.75 546.512 571 C 555.012 568.5 543.762 557 538.512 557 L 518.512 491" fill="rgb(246,202,159)" vector-effect="non-scaling-stroke" stroke-width="4" stroke="rgb(0,0,0)" stroke-linejoin="miter" stroke-linecap="square" stroke-miterlimit="3"/><path d=" M 543 384 Q 532.333 417 545 417 Q 530.324 431.044 505.615 424.745 Q 480.907 431.044 466.231 417 Q 478.897 417 469 384 Q 509.813 342.687 543 384 Z " fill-rule="evenodd" fill="rgb(138,72,54)" vector-effect="non-scaling-stroke" stroke-width="4" stroke="rgb(0,0,0)" stroke-linejoin="miter" stroke-linecap="square" stroke-miterlimit="3"/><path d=" M 505.756 395.403 Q 503.945 398.797 502.756 399.403 Q 505.703 400.977 505.756 402.403" fill="none" vector-effect="non-scaling-stroke" stroke-width="2" stroke="rgb(0,0,0)" stroke-linejoin="round" stroke-linecap="square" stroke-miterlimit="3"/><mask id="_mask_D8MGSKKjkChHmNqp7sT7OBakofwNAbsd"><ellipse vector-effect="non-scaling-stroke" cx="505.7561669829223" cy="388.35863377609104" rx="29.023719165085367" ry="37.47722960151799" fill="white" stroke="none"/></mask><ellipse vector-effect="non-scaling-stroke" cx="505.7561669829223" cy="388.35863377609104" rx="29.023719165085367" ry="37.47722960151799" fill="rgb(246,202,159)"/><ellipse vector-effect="non-scaling-stroke" cx="505.7561669829223" cy="388.35863377609104" rx="29.023719165085367" ry="37.47722960151799" fill="rgb(246,202,159)" mask="url(#_mask_D8MGSKKjkChHmNqp7sT7OBakofwNAbsd)" stroke-width="8" stroke="rgb(0,0,0)" stroke-linejoin="miter" stroke-linecap="square" stroke-miterlimit="3"/><g><path d=" M 523.509 402.73 Q 527.867 400.792 528.581 393.713 L 531.398 386.386 L 526.326 388.64 Q 518.199 383.445 516.182 393.149 L 523.509 402.73 Z " fill="rgb(0,0,0)" vector-effect="non-scaling-stroke" stroke-width="1" stroke="rgb(0,0,0)" stroke-linejoin="miter" stroke-linecap="square" stroke-miterlimit="3"/><ellipse vector-effect="non-scaling-stroke" cx="520.9724857685012" cy="395.9667931688803" rx="5.917457305502808" ry="8.453510436432623" fill="rgb(235,235,235)"/><ellipse vector-effect="non-scaling-stroke" cx="519.5635673624288" cy="397.0939278937381" rx="3.9449715370019476" ry="6.762808349146098" fill="rgb(0,0,0)"/></g><g><path d=" M 488.004 402.73 Q 483.645 400.792 482.932 393.713 L 480.114 386.386 L 485.186 388.64 Q 493.314 383.445 495.33 393.149 L 488.004 402.73 Z " fill="rgb(0,0,0)" vector-effect="non-scaling-stroke" stroke-width="1" stroke="rgb(0,0,0)" stroke-linejoin="miter" stroke-linecap="square" stroke-miterlimit="3"/><ellipse vector-effect="non-scaling-stroke" cx="490.5398481973434" cy="395.9667931688803" rx="5.9174573055028645" ry="8.453510436432623" fill="rgb(235,235,235)"/><ellipse vector-effect="non-scaling-stroke" cx="491.9487666034158" cy="397.0939278937381" rx="3.9449715370018907" ry="6.762808349146098" fill="rgb(0,0,0)"/></g><ellipse vector-effect="non-scaling-stroke" cx="491.3851992409868" cy="408.92884250474384" rx="4.508538899430732" ry="2.254269449715366" fill="rgb(246,129,135)"/><ellipse vector-effect="non-scaling-stroke" cx="520.6907020872865" cy="408.92884250474384" rx="4.508538899430732" ry="2.254269449715366" fill="rgb(246,129,135)"/><path d=" M 489 376 Q 501.976 384.086 505.491 389 Q 509.148 383.859 521 376" fill="rgb(138,72,54)" vector-effect="non-scaling-stroke" stroke-width="4" stroke="rgb(0,0,0)" stroke-linejoin="miter" stroke-linecap="square" stroke-miterlimit="3"/><path d=" M 500.402 409.492 L 505.474 414.565 L 509.983 409.492" fill="none" vector-effect="non-scaling-stroke" stroke-width="2" stroke="rgb(0,0,0)" stroke-linejoin="miter" stroke-linecap="round" stroke-miterlimit="3"/><path d=" M 505.617 374.636 Q 520.734 383.641 544.924 384.132 Q 541.965 347.5 505.474 347.5 L 505.474 374.551 Q 505.545 374.594 505.617 374.636 Z  M 505.756 374.551 Q 505.686 374.594 505.617 374.636 Q 490.778 383.641 466.588 384.132 Q 468.983 347.5 505.474 347.5 L 505.756 374.551 Z " fill-rule="evenodd" fill="rgb(138,72,54)" vector-effect="non-scaling-stroke" stroke-width="4" stroke="rgb(0,0,0)" stroke-linejoin="miter" stroke-linecap="square" stroke-miterlimit="3"/><path d=" M 500.402 424.709 Q 501.177 431.19 498.712 434.853 L 511.674 434.853 Q 509.349 429.71 509.983 424.709 L 500.402 424.709 Z " fill="rgb(230,156,105)" vector-effect="non-scaling-stroke" stroke-width="4" stroke="rgb(0,0,0)" stroke-linejoin="miter" stroke-linecap="square" stroke-miterlimit="3"/><path d=" M 494 436.228 Q 503.506 433.478 515.756 436.228 Q 507.256 467.978 538.756 507.228 L 469.756 507.228 Q 498.563 478.687 494 436.228 Z " fill="rgb(255,80,0)" vector-effect="non-scaling-stroke" stroke-width="4" stroke="rgb(0,0,0)" stroke-linejoin="round" stroke-linecap="square" stroke-miterlimit="3"/><path d=" M 472.5 558 Q 484 559.828 492.5 558 L 491.5 567 Q 478.359 574.375 460.5 569 Q 461.016 558.141 472.5 558 Z " fill="rgb(198,69,36)" vector-effect="non-scaling-stroke" stroke-width="4" stroke="rgb(0,0,0)" stroke-linejoin="miter" stroke-linecap="square" stroke-miterlimit="3"/><path d=" M 537.921 558 Q 526.421 559.828 517.921 558 L 518.921 567 Q 532.061 574.375 549.921 569 Q 549.405 558.141 537.921 558 Z " fill="rgb(198,69,36)" vector-effect="non-scaling-stroke" stroke-width="4" stroke="rgb(0,0,0)" stroke-linejoin="miter" stroke-linecap="square" stroke-miterlimit="3"/><path d=" M 486 486 Q 474.25 505.625 473 506 Q 471.75 506.375 536 506 L 524 486 L 486 486 Z " fill="rgb(255,255,255)" vector-effect="non-scaling-stroke" stroke-width="4" stroke="rgb(0,0,0)" stroke-linejoin="miter" stroke-linecap="square" stroke-miterlimit="3"/><mask id="_mask_PF7yMXa00C0hvymsg14ElbA36fd5QSeW"><circle vector-effect="non-scaling-stroke" cx="547.0000000000001" cy="471.04044117646913" r="11" fill="white" stroke="none"/></mask><circle vector-effect="non-scaling-stroke" cx="547.0000000000001" cy="471.04044117646913" r="11" fill="rgb(246,202,159)"/><circle vector-effect="non-scaling-stroke" cx="547.0000000000001" cy="471.04044117646913" r="11" fill="rgb(246,202,159)" mask="url(#_mask_PF7yMXa00C0hvymsg14ElbA36fd5QSeW)" stroke-width="8" stroke="rgb(0,0,0)" stroke-linejoin="miter" stroke-linecap="square" stroke-miterlimit="3"/><mask id="_mask_HkP8fDTdCf25jWcRKvf9buDjghCR0gn3"><circle vector-effect="non-scaling-stroke" cx="458.75616698292225" cy="471.04044117646913" r="11" fill="white" stroke="none"/></mask><circle vector-effect="non-scaling-stroke" cx="458.75616698292225" cy="471.04044117646913" r="11" fill="rgb(246,202,159)"/><circle vector-effect="non-scaling-stroke" cx="458.75616698292225" cy="471.04044117646913" r="11" fill="rgb(246,202,159)" mask="url(#_mask_HkP8fDTdCf25jWcRKvf9buDjghCR0gn3)" stroke-width="8" stroke="rgb(0,0,0)" stroke-linejoin="miter" stroke-linecap="square" stroke-miterlimit="3"/></g></g></svg>