<?xml version="1.0" encoding="UTF-8" standalone="no"?><!-- Generator: Gravit.io --><svg xmlns="http://www.w3.org/2000/svg" xmlns:xlink="http://www.w3.org/1999/xlink" style="isolation:isolate" viewBox="0 0 1024 768" width="1024pt" height="768pt"><defs><clipPath id="_clipPath_OG07MIrn9xFotziEbm5ADEl5vZjZuwJH"><rect width="1024" height="768"/></clipPath></defs><g clip-path="url(#_clipPath_OG07MIrn9xFotziEbm5ADEl5vZjZuwJH)"><rect width="1024" height="768" style="fill:rgb(0,0,0)" fill-opacity="0"/><g style="isolation:isolate"><mask id="_mask_JRigaNHjZ9RxWhggIcDpoX0vDix3WoxC"><path d=" M 724 593 L 768 593 C 770.76 593 773 595.24 773 598 L 773 642 L 729 642 C 726.24 642 724 639.76 724 637 L 724 593 Z " fill="white" stroke="none"/></mask><path d=" M 724 593 L 768 593 C 770.76 593 773 595.24 773 598 L 773 642 L 729 642 C 726.24 642 724 639.76 724 637 L 724 593 Z " fill="rgb(255,80,0)"/><path d=" M 724 593 L 768 593 C 770.76 593 773 595.24 773 598 L 773 642 L 729 642 C 726.24 642 724 639.76 724 637 L 724 593 Z " fill="rgb(255,80,0)" mask="url(#_mask_JRigaNHjZ9RxWhggIcDpoX0vDix3WoxC)" vector-effect="non-scaling-stroke" stroke-width="6" stroke="rgb(0,0,0)" stroke-linejoin="miter" stroke-linecap="square" stroke-miterlimit="3"/><mask id="_mask_LbuwBNi72vCLDfk0OSyqklDKpeFExY1i"><path d=" M 745.028 622.7 L 729 622.7 L 729 612.3 L 745.028 612.3 L 745.028 604.237 L 756.514 610.869 L 768 617.5 L 756.514 624.131 L 745.028 630.763 L 745.028 622.7 Z " fill-rule="evenodd" fill="white" stroke="none"/></mask><path d=" M 745.028 622.7 L 729 622.7 L 729 612.3 L 745.028 612.3 L 745.028 604.237 L 756.514 610.869 L 768 617.5 L 756.514 624.131 L 745.028 630.763 L 745.028 622.7 Z " fill-rule="evenodd" fill="rgb(255,0,64)"/><path d=" M 745.028 622.7 L 729 622.7 L 729 612.3 L 745.028 612.3 L 745.028 604.237 L 756.514 610.869 L 768 617.5 L 756.514 624.131 L 745.028 630.763 L 745.028 622.7 Z " fill-rule="evenodd" fill="rgb(255,0,64)" mask="url(#_mask_LbuwBNi72vCLDfk0OSyqklDKpeFExY1i)" vector-effect="non-scaling-stroke" stroke-width="6" stroke="rgb(0,0,0)" stroke-linejoin="miter" stroke-linecap="square" stroke-miterlimit="3"/></g></g></svg>