<?xml version="1.0" encoding="UTF-8" standalone="no"?><!-- Generator: Gravit.io --><svg xmlns="http://www.w3.org/2000/svg" xmlns:xlink="http://www.w3.org/1999/xlink" style="isolation:isolate" viewBox="0 0 1024 768" width="1024pt" height="768pt"><defs><clipPath id="_clipPath_LDPTYDBt8N2anlmmYevaLTluTvihaWuk"><rect width="1024" height="768"/></clipPath></defs><g clip-path="url(#_clipPath_LDPTYDBt8N2anlmmYevaLTluTvihaWuk)"><rect width="1024" height="768" style="fill:rgb(0,0,0)" fill-opacity="0"/><g style="isolation:isolate"><g><mask id="_mask_9ZdVioUY3ZtIYN5RsRnkFBHb80RwlCDS"><rect x="425.5" y="126.619" width="173" height="86.5" fill="white" stroke="none"/></mask><rect x="425.5" y="126.619" width="173" height="86.5" transform="matrix(-1,0,0,-1,1024,339.738)" fill="rgb(235,235,235)"/><rect x="425.5" y="126.619" width="173" height="86.5" transform="matrix(-1,0,0,-1,1024,339.738)" fill="rgb(235,235,235)" mask="url(#_mask_9ZdVioUY3ZtIYN5RsRnkFBHb80RwlCDS)" vector-effect="non-scaling-stroke" stroke-width="8" stroke="rgb(0,0,0)" stroke-linejoin="miter" stroke-linecap="square" stroke-miterlimit="2"/><mask id="_mask_LrumdHwpELVnHelUaPLBqiXJpoR37iKt"><rect x="426.5" y="196.119" width="171" height="13.333" fill="white" stroke="none"/></mask><rect x="426.5" y="196.119" width="171" height="13.333" transform="matrix(-1,0,0,-1,1024,405.571)" fill="rgb(0,0,0)"/><rect x="426.5" y="196.119" width="171" height="13.333" transform="matrix(-1,0,0,-1,1024,405.571)" fill="rgb(0,0,0)" mask="url(#_mask_LrumdHwpELVnHelUaPLBqiXJpoR37iKt)" vector-effect="non-scaling-stroke" stroke-width="8" stroke="rgb(0,0,0)" stroke-linejoin="miter" stroke-linecap="square" stroke-miterlimit="2"/></g><g><mask id="_mask_xUxw9jlPGrzHA3C6UwHgLUPNPEVQivuR"><path d=" M 540 22.619 C 540 42.278 528.014 58.238 513.25 58.238 C 498.486 58.238 486.5 42.278 486.5 22.619 C 486.5 2.96 498.486 -13 513.25 -13 C 528.014 -13 540 2.96 540 22.619 Z " fill="white" stroke="none"/></mask><path d=" M 540 22.619 C 540 42.278 528.014 58.238 513.25 58.238 C 498.486 58.238 486.5 42.278 486.5 22.619 C 486.5 2.96 498.486 -13 513.25 -13 C 528.014 -13 540 2.96 540 22.619 Z " fill="rgb(199,207,221)"/><path d=" M 540 22.619 C 540 42.278 528.014 58.238 513.25 58.238 C 498.486 58.238 486.5 42.278 486.5 22.619 C 486.5 2.96 498.486 -13 513.25 -13 C 528.014 -13 540 2.96 540 22.619 Z " fill="rgb(199,207,221)" mask="url(#_mask_xUxw9jlPGrzHA3C6UwHgLUPNPEVQivuR)" vector-effect="non-scaling-stroke" stroke-width="8" stroke="rgb(0,0,0)" stroke-linejoin="miter" stroke-linecap="square" stroke-miterlimit="3"/><path d=" M 533.75 37.113 Q 508.5 28.441 492.75 38.113 Q 501.813 59.472 512.75 59.113 Q 523.688 58.754 533.75 37.113 Z " fill="rgb(146,161,185)"/><mask id="_mask_6T5dz9su7DWEQZ0bZoExk6bvbCL5zdqc"><path d=" M 480.621 76.43 C 480.205 74.393 480 72.28 480 70.119 C 480 51.906 494.563 37.119 512.5 37.119 C 530.437 37.119 545 51.906 545 70.119 C 545 72.35 544.782 74.529 544.34 76.626 C 552.739 78.585 559 86.127 559 95.119 C 559 105.605 550.486 114.119 540 114.119 C 531.793 114.119 524.795 108.905 522.135 101.614 C 519.098 102.601 515.858 103.119 512.5 103.119 C 508.808 103.119 505.258 102.492 501.955 101.326 C 499.385 108.77 492.312 114.119 484 114.119 C 473.514 114.119 465 105.605 465 95.119 C 465 85.787 471.742 78.018 480.621 76.43 Z " fill-rule="evenodd" fill="white" stroke="none"/></mask><path d=" M 480.621 76.43 C 480.205 74.393 480 72.28 480 70.119 C 480 51.906 494.563 37.119 512.5 37.119 C 530.437 37.119 545 51.906 545 70.119 C 545 72.35 544.782 74.529 544.34 76.626 C 552.739 78.585 559 86.127 559 95.119 C 559 105.605 550.486 114.119 540 114.119 C 531.793 114.119 524.795 108.905 522.135 101.614 C 519.098 102.601 515.858 103.119 512.5 103.119 C 508.808 103.119 505.258 102.492 501.955 101.326 C 499.385 108.77 492.312 114.119 484 114.119 C 473.514 114.119 465 105.605 465 95.119 C 465 85.787 471.742 78.018 480.621 76.43 Z " fill-rule="evenodd" fill="rgb(199,207,221)"/><path d=" M 480.621 76.43 C 480.205 74.393 480 72.28 480 70.119 C 480 51.906 494.563 37.119 512.5 37.119 C 530.437 37.119 545 51.906 545 70.119 C 545 72.35 544.782 74.529 544.34 76.626 C 552.739 78.585 559 86.127 559 95.119 C 559 105.605 550.486 114.119 540 114.119 C 531.793 114.119 524.795 108.905 522.135 101.614 C 519.098 102.601 515.858 103.119 512.5 103.119 C 508.808 103.119 505.258 102.492 501.955 101.326 C 499.385 108.77 492.312 114.119 484 114.119 C 473.514 114.119 465 105.605 465 95.119 C 465 85.787 471.742 78.018 480.621 76.43 Z " fill-rule="evenodd" fill="rgb(199,207,221)" mask="url(#_mask_6T5dz9su7DWEQZ0bZoExk6bvbCL5zdqc)" vector-effect="non-scaling-stroke" stroke-width="8" stroke="rgb(0,0,0)" stroke-linejoin="miter" stroke-linecap="square" stroke-miterlimit="3"/><path d=" M 500 65.619 C 500 69.206 498.88 72.119 497.5 72.119 C 496.12 72.119 495 69.206 495 65.619 C 495 62.032 496.12 59.119 497.5 59.119 C 498.88 59.119 500 62.032 500 65.619 Z " fill="rgb(0,0,0)"/><path d=" M 529.5 65.619 C 529.5 69.206 528.38 72.119 527 72.119 C 525.62 72.119 524.5 69.206 524.5 65.619 C 524.5 62.032 525.62 59.119 527 59.119 C 528.38 59.119 529.5 62.032 529.5 65.619 Z " fill="rgb(0,0,0)"/><path d=" M 495 56.369 C 495 59.543 492.648 62.119 489.75 62.119 C 486.852 62.119 484.5 59.543 484.5 56.369 C 484.5 53.196 486.852 50.619 489.75 50.619 C 492.648 50.619 495 53.196 495 56.369 Z " fill="rgb(246,129,135)"/><path d=" M 540 56.369 C 540 59.543 537.648 62.119 534.75 62.119 C 531.852 62.119 529.5 59.543 529.5 56.369 C 529.5 53.196 531.852 50.619 534.75 50.619 C 537.648 50.619 540 53.196 540 56.369 Z " fill="rgb(246,129,135)"/><mask id="_mask_WkIBa0geg1DtNj6htP3HtU2SlVDVr6ZE"><path d=" M 470 124.619 C 470 132.622 464.623 139.119 458 139.119 C 451.377 139.119 446 132.622 446 124.619 C 446 116.616 451.377 110.119 458 110.119 C 464.623 110.119 470 116.616 470 124.619 Z " fill="white" stroke="none"/></mask><path d=" M 470 124.619 C 470 132.622 464.623 139.119 458 139.119 C 451.377 139.119 446 132.622 446 124.619 C 446 116.616 451.377 110.119 458 110.119 C 464.623 110.119 470 116.616 470 124.619 Z " fill="rgb(199,207,221)"/><path d=" M 470 124.619 C 470 132.622 464.623 139.119 458 139.119 C 451.377 139.119 446 132.622 446 124.619 C 446 116.616 451.377 110.119 458 110.119 C 464.623 110.119 470 116.616 470 124.619 Z " fill="rgb(199,207,221)" mask="url(#_mask_WkIBa0geg1DtNj6htP3HtU2SlVDVr6ZE)" vector-effect="non-scaling-stroke" stroke-width="8" stroke="rgb(0,0,0)" stroke-linejoin="miter" stroke-linecap="square" stroke-miterlimit="3"/><mask id="_mask_dNF0m0bWASXgk13lryVvcBGKaV7YICP0"><path d=" M 578 124.619 C 578 132.622 572.623 139.119 566 139.119 C 559.377 139.119 554 132.622 554 124.619 C 554 116.616 559.377 110.119 566 110.119 C 572.623 110.119 578 116.616 578 124.619 Z " fill="white" stroke="none"/></mask><path d=" M 578 124.619 C 578 132.622 572.623 139.119 566 139.119 C 559.377 139.119 554 132.622 554 124.619 C 554 116.616 559.377 110.119 566 110.119 C 572.623 110.119 578 116.616 578 124.619 Z " fill="rgb(199,207,221)"/><path d=" M 578 124.619 C 578 132.622 572.623 139.119 566 139.119 C 559.377 139.119 554 132.622 554 124.619 C 554 116.616 559.377 110.119 566 110.119 C 572.623 110.119 578 116.616 578 124.619 Z " fill="rgb(199,207,221)" mask="url(#_mask_dNF0m0bWASXgk13lryVvcBGKaV7YICP0)" vector-effect="non-scaling-stroke" stroke-width="8" stroke="rgb(0,0,0)" stroke-linejoin="miter" stroke-linecap="square" stroke-miterlimit="3"/><path d=" M 550.5 94.619 C 550.5 100.414 545.795 105.119 540 105.119 C 534.205 105.119 529.5 100.414 529.5 94.619 C 529.5 88.824 534.205 84.119 540 84.119 C 545.795 84.119 550.5 88.824 550.5 94.619 Z " fill="rgb(246,129,135)"/><path d=" M 495 94.619 C 495 100.414 490.295 105.119 484.5 105.119 C 478.705 105.119 474 100.414 474 94.619 C 474 88.824 478.705 84.119 484.5 84.119 C 490.295 84.119 495 88.824 495 94.619 Z " fill="rgb(246,129,135)"/></g></g></g></svg>