<?xml version="1.0" encoding="UTF-8" standalone="no"?><!-- Generator: Gravit.io --><svg xmlns="http://www.w3.org/2000/svg" xmlns:xlink="http://www.w3.org/1999/xlink" style="isolation:isolate" viewBox="0 0 1024 768" width="1024pt" height="768pt"><defs><clipPath id="_clipPath_rwbj08Oe3MXod80IsvjrwrUs5j7FT9cp"><rect width="1024" height="768"/></clipPath></defs><g clip-path="url(#_clipPath_rwbj08Oe3MXod80IsvjrwrUs5j7FT9cp)"><rect width="1024" height="768" style="fill:rgb(0,0,0)" fill-opacity="0"/><g style="isolation:isolate"><mask id="_mask_4PuqQKq0vYUliTCrY2YuN5OmSuZN7ozC"><path d=" M 252.699 174 L -121.651 174 L -121.651 245 L 252.699 245 L 277.524 245 L 278.349 245 L 302.349 245 L 289.937 226.25 L 278.848 209.5 L 289.937 192.75 L 302.349 174 L 277.524 174 L 252.699 174 L 252.699 174 Z " fill-rule="evenodd" fill="white" stroke="none"/></mask><path d=" M 252.699 174 L -121.651 174 L -121.651 245 L 252.699 245 L 277.524 245 L 278.349 245 L 302.349 245 L 289.937 226.25 L 278.848 209.5 L 289.937 192.75 L 302.349 174 L 277.524 174 L 252.699 174 L 252.699 174 Z " fill-rule="evenodd" fill="rgb(0,0,0)"/><path d=" M 252.699 174 L -121.651 174 L -121.651 245 L 252.699 245 L 277.524 245 L 278.349 245 L 302.349 245 L 289.937 226.25 L 278.848 209.5 L 289.937 192.75 L 302.349 174 L 277.524 174 L 252.699 174 L 252.699 174 Z " fill-rule="evenodd" fill="rgb(0,0,0)" mask="url(#_mask_4PuqQKq0vYUliTCrY2YuN5OmSuZN7ozC)" vector-effect="non-scaling-stroke" stroke-width="8" stroke="rgb(0,0,0)" stroke-linejoin="miter" stroke-linecap="square" stroke-miterlimit="3"/><mask id="_mask_3QsDqGVEC87kGP8j1lVWj3k3LlwRMAmT"><path d=" M 233.699 161 L -14 161 L -14 232 L 233.699 232 L 258.524 232 L 259.349 232 L 283.349 232 L 270.937 213.25 L 259.848 196.5 L 270.937 179.75 L 283.349 161 L 258.524 161 L 233.699 161 L 233.699 161 Z " fill-rule="evenodd" fill="white" stroke="none"/></mask><path d=" M 233.699 161 L -14 161 L -14 232 L 233.699 232 L 258.524 232 L 259.349 232 L 283.349 232 L 270.937 213.25 L 259.848 196.5 L 270.937 179.75 L 283.349 161 L 258.524 161 L 233.699 161 L 233.699 161 Z " fill-rule="evenodd" fill="rgb(235,235,235)"/><path d=" M 233.699 161 L -14 161 L -14 232 L 233.699 232 L 258.524 232 L 259.349 232 L 283.349 232 L 270.937 213.25 L 259.848 196.5 L 270.937 179.75 L 283.349 161 L 258.524 161 L 233.699 161 L 233.699 161 Z " fill-rule="evenodd" fill="rgb(235,235,235)" mask="url(#_mask_3QsDqGVEC87kGP8j1lVWj3k3LlwRMAmT)" vector-effect="non-scaling-stroke" stroke-width="8" stroke="rgb(0,0,0)" stroke-linejoin="miter" stroke-linecap="square" stroke-miterlimit="3"/><g clip-path="url(#_clipPath_KW63bMdUGplVr8AIyRjH2JK8nSqVroeu)"><text transform="matrix(1,0,0,1,21.699,219.708)" style="font-family:'Play';font-weight:400;font-size:48px;font-style:normal;fill:#0098dc;stroke:#000000;stroke-width:3;">Speed Up!</text></g><defs><clipPath id="_clipPath_KW63bMdUGplVr8AIyRjH2JK8nSqVroeu"><rect x="0" y="0" width="221" height="55.536" transform="matrix(1,0,0,1,12.699,165.732)"/></clipPath></defs></g></g></svg>