<?xml version="1.0" encoding="UTF-8" standalone="no"?><!-- Generator: Gravit.io --><svg xmlns="http://www.w3.org/2000/svg" xmlns:xlink="http://www.w3.org/1999/xlink" style="isolation:isolate" viewBox="0 0 1024 768" width="1024pt" height="768pt"><defs><clipPath id="_clipPath_xlEbjcQRoOgVlFiMqcFSFABmcHcT6y7Q"><rect width="1024" height="768"/></clipPath></defs><g clip-path="url(#_clipPath_xlEbjcQRoOgVlFiMqcFSFABmcHcT6y7Q)"><rect width="1024" height="768" style="fill:rgb(0,0,0)" fill-opacity="0"/><g style="isolation:isolate"><mask id="_mask_8AkDJ74v46SmT4Wo9mAkSnppiyMGCOFJ"><path d=" M 670 593 L 714 593 C 716.76 593 719 595.24 719 598 L 719 642 L 675 642 C 672.24 642 670 639.76 670 637 L 670 593 Z " fill="white" stroke="none"/></mask><path d=" M 670 593 L 714 593 C 716.76 593 719 595.24 719 598 L 719 642 L 675 642 C 672.24 642 670 639.76 670 637 L 670 593 Z " fill="rgb(255,162,20)"/><path d=" M 670 593 L 714 593 C 716.76 593 719 595.24 719 598 L 719 642 L 675 642 C 672.24 642 670 639.76 670 637 L 670 593 Z " fill="rgb(255,162,20)" mask="url(#_mask_8AkDJ74v46SmT4Wo9mAkSnppiyMGCOFJ)" vector-effect="non-scaling-stroke" stroke-width="6" stroke="rgb(0,0,0)" stroke-linejoin="miter" stroke-linecap="square" stroke-miterlimit="3"/><mask id="_mask_4VgyTpI2Kka0kXQkiqdoJntqhC6s24Xj"><path d=" M 699.7 620.972 L 699.7 637 L 689.3 637 L 689.3 620.972 L 681.237 620.972 L 687.869 609.486 L 694.5 598 L 701.131 609.486 L 707.763 620.972 L 699.7 620.972 Z " fill-rule="evenodd" fill="white" stroke="none"/></mask><path d=" M 699.7 620.972 L 699.7 637 L 689.3 637 L 689.3 620.972 L 681.237 620.972 L 687.869 609.486 L 694.5 598 L 701.131 609.486 L 707.763 620.972 L 699.7 620.972 Z " fill-rule="evenodd" fill="rgb(255,235,87)"/><path d=" M 699.7 620.972 L 699.7 637 L 689.3 637 L 689.3 620.972 L 681.237 620.972 L 687.869 609.486 L 694.5 598 L 701.131 609.486 L 707.763 620.972 L 699.7 620.972 Z " fill-rule="evenodd" fill="rgb(255,235,87)" mask="url(#_mask_4VgyTpI2Kka0kXQkiqdoJntqhC6s24Xj)" vector-effect="non-scaling-stroke" stroke-width="6" stroke="rgb(0,0,0)" stroke-linejoin="miter" stroke-linecap="square" stroke-miterlimit="3"/></g></g></svg>